<?xml version="1.0" standalone="no"?>
<!DOCTYPE svg PUBLIC "-//W3C//DTD SVG 20010904//EN"
 "http://www.w3.org/TR/2001/REC-SVG-20010904/DTD/svg10.dtd">
<svg version="1.0" xmlns="http://www.w3.org/2000/svg"
 width="108.000000pt" height="108.000000pt" viewBox="0 0 108.000000 108.000000"
 preserveAspectRatio="xMidYMid meet">
<metadata>
Created by potrace 1.14, written by Peter Selinger 2001-2017
</metadata>
<g transform="translate(0.000000,108.000000) scale(0.100000,-0.100000)"
fill="#000000" stroke="none">
<path d="M535 979 c-114 -15 -267 -81 -360 -156 -73 -60 -120 -141 -107 -188
9 -33 77 -78 127 -84 17 -2 32 -6 35 -11 3 -4 13 -6 23 -4 9 1 34 -4 55 -11
20 -7 56 -19 79 -26 23 -6 40 -16 37 -20 -3 -5 1 -6 9 -3 22 8 49 -24 41 -49
-15 -48 -88 -117 -131 -123 -6 -1 -58 -23 -115 -48 -197 -88 -220 -106 -184
-145 16 -18 44 -19 120 -5 31 6 37 4 31 -6 -5 -9 -4 -11 4 -6 6 4 9 11 6 16
-3 4 2 10 10 14 8 3 15 1 15 -5 0 -6 7 -3 16 5 14 15 28 20 47 17 4 0 7 4 7
10 0 5 5 7 10 4 6 -3 10 -1 10 5 0 6 5 8 10 5 6 -4 7 -11 4 -17 -4 -7 -2 -8 4
-4 6 4 9 13 6 21 -4 10 0 13 15 10 11 -2 24 1 27 7 4 7 2 8 -4 4 -7 -4 -12 -2
-12 5 0 7 8 9 21 6 12 -3 18 -3 15 0 -8 8 30 36 103 73 55 29 66 32 85 20 17
-10 19 -10 9 1 -15 15 -18 33 -5 25 5 -3 25 4 45 14 21 11 37 17 37 13 0 -5 5
0 11 10 5 9 16 17 22 17 16 0 37 54 27 70 -9 14 -66 0 -107 -26 -20 -13 -23
-13 -23 1 0 9 5 25 10 36 7 13 7 19 0 19 -5 0 -10 8 -10 18 0 26 -28 56 -70
75 -39 18 -222 57 -267 57 -16 0 -50 7 -76 16 -44 15 -45 16 -29 36 9 11 22
24 27 29 42 38 62 50 76 46 11 -3 16 0 13 8 -5 12 31 32 49 27 4 -1 7 2 7 8 0
5 7 7 15 4 10 -4 13 -2 10 8 -3 8 0 15 7 16 21 1 57 10 68 17 11 7 44 15 80
19 14 2 41 7 62 11 40 8 151 -13 142 -26 -3 -5 1 -6 9 -3 19 7 31 -25 16 -43
-9 -10 -9 -20 -1 -38 10 -21 18 -25 47 -23 26 2 35 8 35 21 0 11 5 15 11 11 7
-4 7 1 -1 16 -10 18 -9 21 1 15 8 -6 10 -4 4 5 -4 7 -9 29 -11 49 -9 99 -132
152 -299 130z"/>
<path d="M226 698 c3 -5 10 -6 15 -3 13 9 11 12 -6 12 -8 0 -12 -4 -9 -9z"/>
<path d="M848 427 c-20 -17 -45 -53 -56 -79 l-20 -46 24 -49 c28 -54 100 -124
121 -116 7 3 13 -1 13 -8 0 -10 3 -10 12 -1 7 7 20 12 30 12 10 0 28 11 39 24
13 15 28 22 38 19 14 -4 14 -3 1 6 -13 10 -13 12 0 21 8 5 12 10 8 10 -4 0 -1
12 7 26 14 28 11 74 -7 85 -6 4 -8 12 -4 18 4 7 1 9 -8 5 -14 -5 -33 30 -27
51 1 6 0 7 -4 3 -4 -4 -25 7 -48 23 -51 37 -73 36 -119 -4z"/>
</g>
</svg>
