<?xml version="1.0" standalone="no"?>
<!DOCTYPE svg PUBLIC "-//W3C//DTD SVG 20010904//EN"
 "http://www.w3.org/TR/2001/REC-SVG-20010904/DTD/svg10.dtd">
<svg version="1.0" xmlns="http://www.w3.org/2000/svg"
 width="500.000000pt" height="500.000000pt" viewBox="0 0 500.000000 500.000000"
 preserveAspectRatio="xMidYMid meet">
<metadata>
Created by potrace 1.11, written by Peter Selinger 2001-2013
</metadata>
<g transform="translate(0.000000,500.000000) scale(0.100000,-0.100000)"
fill="#000000" stroke="none">
<path d="M0 3726 l0 -1274 30 -12 c17 -7 30 -17 30 -22 0 -6 -12 -3 -26 7 -31
20 -47 10 -19 -12 16 -13 17 -15 3 -10 -14 5 -18 1 -18 -17 0 -14 6 -27 13
-29 9 -4 9 -6 0 -6 -9 -1 -12 -74 -13 -295 0 -274 1 -295 17 -299 17 -4 17 -5
1 -6 -11 -1 -18 -9 -18 -22 0 -21 3 -22 83 -16 57 3 70 3 42 -3 -22 -5 -59 -9
-82 -9 -38 -1 -43 -4 -43 -24 0 -13 3 -27 7 -31 5 -4 8 -12 8 -18 0 -6 8 -12
18 -14 10 -1 27 -10 38 -20 10 -9 19 -14 19 -11 0 3 10 -4 23 -16 49 -47 78
-67 88 -62 5 4 8 2 7 -3 -4 -13 50 -62 68 -62 7 0 14 -7 14 -15 0 -8 3 -14 8
-14 20 3 25 -2 12 -12 -12 -8 -11 -9 6 -5 13 4 27 -1 39 -14 10 -11 23 -20 29
-20 6 -1 25 -12 41 -25 24 -21 27 -27 15 -34 -8 -6 -18 -7 -24 -4 -5 4 -6 1
-2 -6 5 -7 10 -10 13 -7 3 3 13 -4 23 -16 l17 -21 5 21 c4 15 2 19 -8 15 -21
-8 -17 5 6 17 15 8 20 8 18 -2 -2 -7 7 -17 19 -22 24 -11 39 -36 22 -36 -6 0
-7 -4 -4 -10 9 -14 -34 -12 -49 3 -8 6 -24 19 -36 27 -12 8 -28 21 -36 28 -7
6 -17 12 -23 12 -5 0 -14 7 -19 16 -5 9 -12 15 -15 15 -21 -3 -27 1 -27 14 0
8 -9 15 -20 15 -11 0 -20 6 -20 14 0 7 -7 19 -15 26 -9 8 -15 8 -15 2 0 -6 6
-13 13 -15 9 -4 9 -6 -1 -6 -7 -1 -15 6 -18 14 -4 8 -13 15 -20 15 -8 0 -17 7
-20 15 -4 8 -13 15 -20 15 -8 0 -17 7 -20 15 -4 8 -10 15 -15 15 -5 0 -21 10
-35 22 -14 13 -33 23 -42 23 -11 0 -16 7 -14 18 2 10 -3 17 -13 17 -9 0 -18 7
-21 15 -19 49 -24 -17 -24 -315 l0 -330 56 0 c72 0 69 -21 -4 -34 l-52 -10 0
-314 0 -314 48 5 47 6 -42 -12 c-63 -18 -65 -30 -2 -22 l55 7 -4 -116 c-4 -94
-2 -116 9 -116 11 0 14 19 13 87 l-2 88 7 -82 c3 -45 9 -84 12 -87 3 -4 95 -5
204 -4 189 3 198 4 181 20 -17 17 -16 18 3 18 14 0 19 5 15 15 -4 8 -1 22 6
30 7 8 9 32 6 61 -3 31 0 54 10 69 8 12 11 24 8 28 -4 4 6 11 21 17 18 7 25
15 21 25 -3 9 0 15 9 15 8 0 15 -5 15 -11 0 -5 4 -8 9 -4 5 3 12 -3 14 -12 4
-15 5 -14 6 3 1 21 30 54 47 54 5 0 10 -8 11 -17 2 -23 9 -60 18 -96 5 -19 12
-26 21 -23 12 4 12 1 4 -14 -13 -25 -39 -26 -46 -2 -24 73 -48 80 -65 20 -7
-24 -21 -55 -32 -71 -21 -31 -19 -63 5 -61 9 1 14 -4 12 -11 -3 -6 2 -18 10
-25 13 -10 17 -9 21 4 3 9 8 24 12 34 3 9 5 22 4 29 -1 7 8 17 19 23 16 9 20
8 20 -4 0 -10 6 -13 16 -9 10 4 17 -1 21 -16 3 -11 9 -18 14 -15 5 3 6 10 3
16 -4 6 -1 14 7 19 10 6 6 11 -16 20 -20 8 -25 13 -15 16 9 2 34 -4 55 -14 22
-9 43 -16 47 -15 5 1 7 -1 7 -6 -1 -4 0 -10 1 -14 1 -5 3 -14 4 -20 1 -7 9
-12 19 -10 9 2 17 -2 17 -8 0 -5 -4 -10 -9 -10 -5 0 -11 -11 -13 -23 -4 -22
-1 -24 38 -26 52 -1 68 19 71 89 0 25 2 47 3 50 2 3 4 25 5 50 2 25 5 56 9 70
8 35 24 118 31 160 3 19 13 54 21 78 7 23 14 51 14 62 0 10 11 40 25 66 14 26
25 54 24 63 0 11 -2 12 -6 3 -9 -22 -82 -63 -119 -66 -20 -1 -45 -13 -62 -28
-15 -14 -36 -28 -47 -31 -11 -2 -29 -8 -40 -12 -13 -4 -12 -1 5 9 14 8 32 15
40 16 8 0 28 13 43 30 19 20 38 30 58 30 43 0 83 24 139 82 27 28 53 47 59 43
7 -3 11 -3 10 2 -1 4 -1 15 0 23 1 13 3 13 10 1 12 -19 -4 -51 -24 -51 -8 0
-15 -8 -15 -17 0 -10 -8 -27 -17 -38 -15 -19 -15 -19 -9 8 5 19 3 26 -4 22 -5
-3 -10 -28 -10 -56 0 -33 -6 -55 -18 -67 -11 -11 -18 -34 -18 -61 -1 -25 -8
-49 -15 -55 -8 -6 -14 -28 -13 -50 1 -48 -5 -78 -16 -71 -4 2 -5 -28 -2 -68 5
-66 4 -71 -11 -58 -21 17 -21 9 -2 -30 9 -16 15 -46 14 -67 -1 -20 -1 -41 1
-47 6 -23 -1 -28 -15 -9 -23 30 -18 -3 6 -42 14 -23 28 -34 44 -34 l24 0 -19
46 c-22 51 -24 64 -11 64 5 0 23 -25 40 -55 31 -54 46 -71 34 -37 -3 9 -24 47
-45 85 -35 60 -39 73 -36 125 l3 57 32 -57 c18 -31 38 -60 44 -64 11 -7 -41
94 -64 124 -9 12 -11 111 -3 120 2 2 14 -15 27 -37 12 -23 27 -41 32 -41 5 0
2 10 -7 23 -27 37 -46 88 -42 111 10 49 59 189 77 221 34 57 170 170 228 190
28 9 55 24 60 33 5 9 12 14 16 10 4 -3 25 2 48 12 28 13 45 16 53 9 9 -7 25
-4 52 10 55 28 299 95 311 85 2 -2 -9 -20 -25 -41 -46 -60 -104 -153 -96 -153
4 0 0 -5 -8 -10 -13 -8 -12 -10 3 -10 20 0 22 -18 2 -43 -9 -13 -20 -17 -34
-12 -14 4 -23 0 -32 -17 -9 -19 -9 -21 2 -11 7 7 17 13 21 13 14 0 9 -51 -6
-66 -13 -12 -16 -12 -24 2 -6 11 -9 0 -10 -35 -1 -68 -10 -80 -33 -44 -20 30
-27 15 -7 -16 6 -11 8 -26 3 -37 -5 -11 -7 -22 -7 -26 4 -16 -27 -8 -38 10
-10 14 -10 13 -5 -8 11 -40 7 -110 -6 -110 -4 0 -17 12 -28 27 -11 16 -21 23
-21 16 0 -6 4 -14 9 -17 5 -4 12 -25 16 -47 5 -29 13 -43 26 -46 21 -6 25 -34
8 -64 -13 -26 -21 -20 -59 47 -45 80 -48 60 -3 -24 33 -62 36 -73 25 -96 -6
-14 -15 -26 -19 -26 -5 0 -23 28 -41 61 -19 33 -36 58 -39 55 -3 -3 11 -35 32
-72 31 -55 36 -71 29 -96 -5 -16 -13 -30 -19 -31 -5 -1 -25 26 -44 61 -20 35
-37 59 -39 54 -1 -5 13 -37 33 -71 37 -67 42 -96 21 -123 -11 -16 -17 -10 -52
52 -21 38 -43 70 -47 70 -8 0 29 -71 67 -132 20 -33 37 -19 72 59 87 191 214
432 270 509 21 31 76 105 122 165 82 109 98 137 64 106 -17 -16 -19 -14 -41
30 -18 37 -20 48 -9 55 9 7 7 8 -7 4 -13 -4 -24 0 -31 12 -9 14 -7 23 11 46
23 29 23 29 34 7 7 -12 9 -25 7 -30 -3 -5 1 -12 10 -15 9 -4 14 -13 10 -21 -3
-9 0 -15 10 -15 8 0 17 -13 20 -30 4 -16 8 -30 10 -30 4 0 44 40 62 63 12 14
7 27 -32 91 -51 84 -51 87 10 139 l33 28 7 -28 c4 -15 10 -32 14 -38 15 -18
24 -89 11 -81 -6 4 -11 12 -11 17 0 14 -51 92 -56 86 -5 -5 60 -122 82 -148
12 -13 6 -23 -42 -70 -105 -102 -155 -167 -153 -202 1 -18 -3 -45 -10 -60 -9
-23 -13 -26 -25 -15 -12 11 -11 17 6 41 11 16 18 31 15 33 -3 3 -13 -6 -22
-20 -17 -26 -26 -94 -13 -98 3 -2 0 -12 -9 -23 -11 -14 -17 -16 -20 -7 -3 6
-9 12 -14 12 -6 0 -6 -8 1 -19 5 -11 10 -29 10 -41 0 -22 10 -38 48 -73 13
-12 33 -39 44 -60 27 -54 34 -40 7 16 -15 30 -20 53 -15 71 9 36 27 32 53 -12
13 -21 22 -30 23 -21 0 9 -8 27 -19 40 -21 26 -17 63 6 55 8 -3 20 -6 27 -6 6
0 20 -14 30 -31 10 -17 20 -28 23 -25 3 3 -4 21 -16 40 l-22 35 20 20 c13 13
27 18 37 14 14 -5 15 -3 6 12 -7 14 -6 22 5 33 20 21 25 11 23 -55 -1 -32 -2
-95 -3 -141 -2 -94 -16 -103 -34 -21 -7 35 -11 44 -12 26 -1 -18 -6 -27 -14
-24 -6 2 -11 12 -9 21 3 15 0 15 -18 4 -12 -7 -20 -22 -18 -33 1 -13 -17 -40
-50 -74 -45 -46 -51 -56 -40 -70 12 -14 11 -14 -4 -2 -16 12 -19 10 -29 -15
-7 -16 -12 -32 -11 -35 1 -4 -6 -6 -16 -5 -10 0 -16 -6 -16 -16 1 -10 -2 -18
-6 -18 -5 0 -11 -9 -15 -20 -5 -15 -13 -19 -36 -16 -19 2 -28 -1 -26 -8 3 -10
-20 -35 -34 -36 -4 0 -9 9 -12 21 -3 11 -14 23 -24 25 -31 8 -45 39 -31 69 6
14 15 25 19 25 4 0 5 9 2 20 -3 10 2 26 10 34 8 9 18 33 22 55 3 21 17 49 30
61 14 13 22 27 18 33 -3 6 -6 29 -5 51 l2 41 -40 -75 c-22 -41 -50 -93 -61
-115 -11 -22 -29 -55 -40 -74 -11 -18 -18 -40 -15 -48 3 -8 2 -12 -2 -9 -9 5
-26 -25 -76 -137 l-35 -77 1562 0 c982 0 1556 4 1547 10 -11 7 -12 12 -3 21
14 14 36 2 29 -17 -4 -12 22 -14 155 -14 l160 0 -1 275 -1 275 -39 0 c-42 0
-56 11 -43 34 9 16 9 16 53 16 l30 0 -1 123 c0 89 -3 116 -10 101 -9 -18 -16
-20 -57 -13 -26 4 -48 3 -50 -2 -5 -12 -22 -12 -22 0 0 5 7 17 16 25 14 15 13
16 -10 16 -23 0 -25 2 -15 24 8 17 8 29 0 42 -6 11 -11 13 -11 7 0 -8 -14 -12
-40 -11 -21 1 -37 5 -34 9 2 4 0 10 -6 14 -18 11 0 25 33 25 18 0 45 7 60 15
19 10 35 11 52 5 17 -7 25 -5 29 6 3 8 10 12 16 9 6 -3 19 -3 30 0 24 8 29 65
5 65 -8 0 -30 9 -50 20 -42 24 -45 24 -45 7 0 -8 -12 -20 -26 -27 -17 -10 -24
-20 -20 -33 3 -14 0 -17 -17 -15 -19 3 -22 10 -24 65 -2 46 1 62 10 60 7 -1
11 7 9 23 -3 26 -36 59 -81 81 -14 7 -36 22 -49 33 -20 18 -25 19 -45 7 -20
-13 -21 -12 -9 1 10 13 8 17 -19 28 -17 8 -37 13 -45 13 -8 0 -14 4 -14 8 0
10 -62 41 -68 34 -3 -3 4 -15 16 -28 12 -13 22 -26 22 -30 0 -7 -49 46 -79 86
-12 15 -12 17 5 10 10 -4 41 -20 69 -36 27 -16 72 -38 99 -49 51 -20 175 -97
194 -120 5 -7 13 -28 17 -46 4 -20 13 -32 23 -32 9 0 41 -11 70 -25 61 -28 72
-30 72 -12 0 6 -25 23 -55 35 -29 13 -62 30 -72 38 -10 8 12 0 49 -16 37 -17
70 -30 73 -30 3 0 5 875 5 1945 l0 1945 -610 0 -611 -1 -20 -32 c-12 -18 -18
-24 -15 -14 18 52 18 53 6 34 -6 -10 -34 -73 -61 -140 -28 -67 -55 -126 -60
-131 -13 -14 -11 -39 2 -30 7 4 7 -1 -1 -16 -10 -18 -9 -24 1 -31 12 -7 12 -9
0 -9 -8 0 -37 22 -65 48 -28 27 -58 51 -65 53 -10 4 5 39 53 130 36 70 66 129
66 133 0 3 -9 6 -20 6 -15 0 -33 -27 -80 -120 -33 -66 -63 -120 -68 -120 -4 0
-14 5 -22 11 -12 8 -11 9 6 5 17 -5 25 2 45 46 13 28 22 53 21 56 -2 3 1 8 6
11 5 3 21 30 36 59 l26 52 -1785 0 -1785 0 0 -1274z m3731 1177 c-12 -20 -14
-14 -5 12 4 9 9 14 11 11 3 -2 0 -13 -6 -23z m-801 -7 c0 -8 -7 -16 -15 -20
-8 -3 -15 -1 -15 4 0 6 5 10 11 10 5 0 7 5 4 10 -3 6 -1 10 4 10 6 0 11 -6 11
-14z m-400 -4 c0 -10 -147 -40 -225 -46 l-60 -5 65 11 c51 8 204 41 218 47 1
1 2 -2 2 -7z m350 -2 c-18 -11 -63 -13 -57 -2 3 4 20 8 39 9 24 2 29 0 18 -7z
m135 -2 c5 4 5 1 1 -5 -9 -16 4 -16 39 -3 18 7 24 7 20 -1 -4 -6 -1 -9 6 -8
15 2 69 -17 69 -25 0 -2 -23 2 -51 9 -28 8 -56 12 -62 9 -7 -2 -30 2 -51 10
-30 10 -35 15 -20 18 10 2 24 1 30 -4 6 -4 15 -4 19 0z m-232 -20 c-19 -5 -52
-4 -80 1 l-48 10 58 -4 c32 -3 56 -1 53 3 -3 5 7 7 22 4 l27 -6 -32 -8z m437
-34 l25 -15 -25 5 c-14 3 -34 6 -45 6 -17 0 -17 2 -5 10 19 12 20 12 50 -6z
m471 -31 c-11 -21 -20 -35 -21 -31 0 12 33 78 38 74 2 -2 -6 -21 -17 -43z
m-1458 30 c-7 -2 -21 -2 -30 0 -10 3 -4 5 12 5 17 0 24 -2 18 -5z m-198 -19
c-22 -8 -62 -32 -90 -53 -27 -22 -72 -52 -100 -67 -52 -28 -119 -49 -109 -33
3 5 13 9 22 9 33 1 104 39 99 54 -3 8 0 17 8 20 9 3 12 0 8 -10 -9 -25 9 -15
48 25 21 21 40 37 42 35 2 -2 21 5 42 16 22 11 46 20 55 19 8 0 -3 -7 -25 -15z
m130 6 c-11 -5 -31 -8 -45 -8 -23 0 -22 1 5 8 42 11 65 11 40 0z m1187 -14
c21 -4 40 -10 42 -15 3 -4 -18 -2 -47 6 -28 7 -63 13 -77 14 -23 0 -23 1 -5 8
11 5 27 5 35 1 8 -4 32 -10 52 -14z m-509 7 c-7 -2 -19 -2 -25 0 -7 3 -2 5 12
5 14 0 19 -2 13 -5z m287 -2 c3 -1 -1 -5 -9 -10 -15 -10 -41 -4 -41 9 0 6 30
7 50 1z m1100 -10 c0 -12 -29 -35 -36 -28 -11 10 5 37 21 37 8 0 15 -4 15 -9z
m-986 -27 c6 -15 4 -15 -11 -3 -10 7 -20 15 -22 16 -2 2 3 3 11 3 9 0 19 -7
22 -16z m-294 -4 c8 -5 11 -10 5 -10 -5 0 -17 5 -25 10 -8 5 -10 10 -5 10 6 0
17 -5 25 -10z m247 -66 c-2 -2 -15 2 -30 9 -27 12 -36 27 -16 27 5 0 7 6 3 13
-4 6 5 -1 20 -17 15 -15 25 -30 23 -32z m459 19 c-8 -15 -15 -25 -16 -21 0 12
23 58 27 54 3 -2 -2 -17 -11 -33z m-216 17 c0 -5 -2 -10 -4 -10 -3 0 -8 5 -11
10 -3 6 -1 10 4 10 6 0 11 -4 11 -10z m52 -77 c6 -7 19 -13 29 -13 11 0 19 -4
19 -9 0 -4 -11 -6 -25 -3 -24 4 -35 -11 -15 -21 6 -3 5 -4 -2 -3 -7 2 -13 11
-13 22 0 13 -6 18 -20 16 -17 -2 -17 -1 -5 7 10 7 11 11 3 11 -15 0 -53 31
-53 42 0 5 11 6 25 2 14 -3 25 -2 24 2 -5 28 4 23 13 -6 5 -19 14 -41 20 -47z
m-675 41 c-3 -3 -12 -4 -19 -1 -8 3 -5 6 6 6 11 1 17 -2 13 -5z m1233 -1 c0
-5 -5 -15 -10 -23 -7 -11 -10 -11 -10 -2 0 10 -5 10 -20 2 -16 -8 -18 -8 -14
4 7 18 54 34 54 19z m-506 -23 c14 -5 26 -14 26 -20 0 -6 -11 -5 -29 4 -16 9
-32 12 -36 8 -5 -4 -5 -1 -1 6 9 15 8 14 40 2z m-279 -10 c3 -5 2 -10 -4 -10
-5 0 -13 5 -16 10 -3 6 -2 10 4 10 5 0 13 -4 16 -10z m935 3 c0 -5 -5 -15 -10
-23 -9 -13 -11 -13 -20 0 -15 22 -12 30 10 30 11 0 20 -3 20 -7z m-870 -38 c0
-2 -7 -2 -15 1 -10 4 -15 0 -15 -11 0 -9 -5 -13 -10 -10 -8 5 -8 11 -1 19 6 7
7 16 3 21 -4 4 3 2 16 -4 12 -6 22 -14 22 -16z m686 7 c8 13 13 18 14 12 0 -5
-7 -19 -15 -30 -13 -16 -16 -17 -25 -4 -5 8 -9 22 -9 30 0 9 5 6 11 -8 l12
-23 12 23z m-2301 -2 c-3 -5 -18 -9 -33 -9 l-27 1 30 8 c17 4 31 8 33 9 2 0 0
-3 -3 -9z m-116 -28 c-30 -15 -69 -37 -87 -50 -18 -13 -32 -19 -32 -13 0 5 12
16 28 24 15 7 26 19 24 26 -1 7 2 10 8 6 6 -4 17 -2 25 5 13 11 60 28 80 29 6
0 -15 -12 -46 -27z m2129 -13 c12 -8 22 -17 22 -21 0 -4 -16 4 -36 17 -20 14
-41 25 -45 25 -5 0 -9 5 -9 11 0 7 8 6 23 -3 12 -8 32 -21 45 -29z m-591 25
c-3 -3 -12 -4 -19 -1 -8 3 -5 6 6 6 11 1 17 -2 13 -5z m477 -27 c8 4 8 3 0 -6
-9 -10 -20 -9 -50 4 -29 12 -35 18 -24 25 9 6 22 2 38 -11 13 -10 29 -16 36
-12z m-1804 13 c-20 -13 -33 -13 -25 0 3 6 14 10 23 10 15 0 15 -2 2 -10z
m1965 -60 c4 -6 11 -8 16 -4 5 3 8 0 7 -7 -2 -7 7 -18 20 -24 12 -5 22 -15 22
-21 0 -7 16 -26 36 -44 20 -17 34 -33 32 -35 -2 -2 -38 30 -79 71 -42 41 -73
74 -68 74 4 0 11 -5 14 -10z m-2322 -22 c-13 -6 -23 -17 -23 -24 0 -15 -27
-44 -42 -44 -6 0 -1 8 10 19 12 10 22 23 22 29 0 12 29 32 45 31 6 0 0 -5 -12
-11z m2657 -18 c0 -5 -7 -10 -15 -10 -8 0 -15 5 -15 10 0 6 7 10 15 10 8 0 15
-4 15 -10z m-2652 -27 c-17 -21 -40 -70 -45 -96 -1 -10 -10 -29 -19 -42 -12
-19 -18 -22 -29 -12 -7 7 -11 16 -8 21 3 4 -1 12 -8 17 -12 7 -12 9 0 9 9 0
11 8 7 25 -4 15 -2 25 4 25 6 0 8 5 5 10 -4 6 -3 9 2 8 16 -4 58 15 71 33 7
11 18 19 24 19 7 0 5 -7 -4 -17z m2648 -33 c1 -28 -3 -40 -12 -40 -8 0 -14 -7
-14 -15 0 -17 -16 -20 -25 -5 -3 6 -2 10 4 10 6 0 8 8 5 18 -5 14 -4 15 5 2
10 -12 11 -11 10 10 -3 43 1 60 14 60 8 0 13 -15 13 -40z m-2650 -27 c-10 -10
-19 5 -10 18 6 11 8 11 12 0 2 -7 1 -15 -2 -18z m2501 -31 c11 -7 33 -35 47
-63 20 -41 23 -56 15 -72 -12 -21 2 -67 21 -67 15 0 12 -33 -5 -66 -14 -27
-15 -27 -15 -6 0 12 6 22 13 23 6 0 3 4 -8 9 -13 6 -15 9 -5 9 9 1 11 4 5 9
-15 10 -36 96 -24 100 25 9 -20 104 -58 121 -13 6 -23 16 -23 23 0 9 3 10 8 2
4 -6 17 -16 29 -22z m-67 8 c0 -5 -2 -10 -4 -10 -3 0 -8 5 -11 10 -3 6 -1 10
4 10 6 0 11 -4 11 -10z m50 -51 c0 -6 -4 -7 -10 -4 -5 3 -10 11 -10 16 0 6 5
7 10 4 6 -3 10 -11 10 -16z m-1320 -20 c0 -11 9 -29 20 -41 14 -15 17 -25 10
-39 -6 -11 -6 -20 -1 -24 6 -3 9 -14 8 -25 -1 -10 -5 -16 -9 -14 -5 3 -6 10
-3 15 4 5 -1 9 -9 9 -9 0 -16 6 -16 14 0 7 -8 20 -17 27 -19 16 -19 17 11 -53
9 -21 13 -38 9 -39 -5 0 3 -5 16 -10 16 -6 22 -15 18 -28 -3 -14 5 -27 26 -43
33 -25 86 -69 127 -105 14 -13 29 -23 34 -23 4 0 6 -9 3 -20 -3 -11 0 -20 6
-20 13 -1 51 -56 71 -104 8 -20 11 -48 7 -76 -6 -40 -8 -42 -14 -20 -5 15 -10
20 -14 13 -2 -7 5 -29 17 -48 26 -41 28 -118 5 -154 -3 -5 -1 -12 5 -16 5 -3
10 -17 10 -30 0 -13 5 -27 10 -30 6 -4 8 -21 4 -42 -6 -33 -5 -35 15 -28 17 5
23 1 31 -20 8 -21 13 -25 24 -16 7 6 15 8 18 5 4 -3 9 8 13 25 4 17 11 33 16
36 5 4 9 23 9 43 0 42 16 73 28 56 4 -6 17 -27 30 -47 28 -43 48 -47 64 -12
11 24 12 24 25 5 7 -10 15 -51 17 -90 3 -66 2 -72 -25 -101 -16 -17 -29 -41
-29 -54 0 -27 22 -48 46 -43 22 4 31 28 11 28 -13 0 -13 4 -4 24 8 16 16 21
21 16 13 -13 56 28 49 46 -3 8 0 14 6 14 6 0 11 -4 11 -9 0 -5 3 -17 6 -25 5
-12 -2 -19 -24 -27 -25 -9 -50 -36 -40 -44 2 -1 27 9 57 23 51 23 53 26 35 39
-10 8 -19 24 -19 35 0 15 -8 24 -23 28 -13 3 -23 10 -24 15 -1 17 -17 58 -38
96 -24 44 -25 56 -5 39 9 -7 16 -11 18 -9 18 32 22 49 16 74 -18 81 -1 102 26
32 11 -30 13 -50 7 -67 -10 -30 -4 -110 10 -127 13 -16 32 -17 22 -1 -5 8 -2
9 10 5 14 -5 17 -3 12 8 -4 11 2 15 27 15 18 0 39 -6 46 -12 11 -10 13 -10 7
0 -4 6 -2 12 3 12 6 0 11 16 11 35 0 30 -4 35 -32 43 -51 13 -43 28 22 43 33
7 60 16 60 19 0 15 54 7 104 -15 45 -20 56 -22 56 -10 0 17 35 21 45 5 13 -21
25 -9 25 25 0 38 0 38 24 29 22 -8 21 -85 0 -127 -17 -31 -75 -118 -126 -186
-15 -20 -32 -46 -38 -59 -14 -31 -124 -122 -149 -122 -4 0 -27 -13 -49 -30
-23 -16 -47 -31 -53 -32 -6 -2 -22 -13 -35 -25 -21 -21 -56 -29 -109 -25 -28
3 -65 47 -66 80 -1 20 -3 22 -6 8 -4 -15 -7 -16 -15 -5 -18 26 1 -85 22 -126
11 -22 20 -44 20 -50 0 -6 20 -26 44 -44 24 -18 49 -44 57 -57 7 -13 16 -24
21 -24 5 0 2 13 -7 30 -14 27 -14 30 4 40 30 16 39 12 56 -21 9 -17 19 -29 21
-26 3 3 -1 18 -10 34 -13 27 -13 30 5 41 28 18 35 15 58 -24 12 -20 24 -34 28
-31 3 3 -5 22 -17 42 -25 40 -25 41 11 50 23 6 29 0 72 -70 25 -41 52 -91 58
-110 7 -19 17 -35 22 -35 4 0 6 -8 3 -18 -4 -10 2 -27 11 -38 32 -36 47 -68
53 -115 8 -59 -6 -56 -40 7 -13 26 -26 41 -28 35 -2 -7 9 -31 24 -54 16 -23
29 -44 29 -47 1 -3 13 -29 28 -57 16 -32 23 -53 16 -53 -7 0 -2 -9 11 -20 13
-11 18 -20 12 -20 -7 0 -12 -4 -12 -10 0 -5 7 -10 15 -10 8 0 22 -17 32 -37 9
-21 19 -41 21 -45 2 -5 -4 -8 -13 -8 -9 0 -13 -4 -10 -10 3 -5 2 -10 -2 -10
-5 0 -28 32 -52 70 -72 117 -59 70 16 -57 102 -173 138 -238 134 -242 -1 -2 2
-7 7 -10 5 -3 40 -59 77 -124 37 -65 74 -121 82 -124 8 -3 12 -11 9 -19 -3 -7
-2 -14 2 -16 10 -4 52 -96 52 -112 0 -7 -9 -25 -20 -39 -25 -31 -26 -44 -2
-26 15 13 16 12 3 -3 -7 -10 -17 -16 -21 -13 -9 5 -62 -56 -55 -63 2 -3 16 9
30 24 l27 29 -27 -37 c-15 -21 -31 -36 -35 -33 -9 6 -23 -12 -26 -33 -2 -8
-10 -22 -20 -33 -14 -15 -20 -17 -27 -7 -6 10 -7 8 -4 -4 6 -18 -25 -52 -38
-41 -4 5 -5 2 -1 -5 4 -6 2 -12 -3 -12 -6 0 -10 -5 -9 -12 2 -7 -3 -13 -9 -14
-7 -1 -17 -2 -23 -3 -5 0 -10 -6 -10 -12 0 -8 6 -7 18 2 15 13 16 12 3 -4 -7
-9 -21 -17 -30 -18 -10 0 -12 -2 -3 -6 18 -7 4 -23 -16 -17 -14 5 -15 4 -2 -5
12 -8 10 -12 -10 -20 -14 -5 -21 -10 -16 -10 4 -1 1 -13 -9 -27 -16 -24 -23
-34 -72 -92 -12 -14 -20 -28 -17 -31 3 -3 8 0 12 6 4 6 34 41 67 78 33 38 67
78 75 89 8 12 22 30 32 40 10 11 28 35 41 53 14 21 27 31 37 27 8 -3 11 -2 8
2 -4 3 28 48 70 98 42 50 84 102 93 116 l15 23 91 -70 c50 -38 132 -91 182
-117 l91 -47 -14 -27 c-68 -127 -217 -292 -329 -365 -45 -30 -114 -75 -153
-100 -88 -57 -249 -138 -324 -162 -30 -10 -59 -21 -65 -25 -15 -11 -220 -80
-239 -80 -24 0 -22 7 22 55 6 7 12 18 12 24 0 6 5 11 10 11 6 0 10 6 10 14 0
8 7 16 15 20 8 3 15 12 15 21 0 8 5 15 10 15 6 0 10 4 10 9 0 6 11 22 25 37
14 15 25 33 25 40 0 8 4 14 8 14 5 0 33 35 62 78 30 42 61 82 69 88 9 7 10 13
4 17 -6 4 -13 0 -17 -8 -3 -8 -12 -15 -20 -15 -10 0 -13 -6 -10 -15 4 -9 0
-15 -10 -15 -9 0 -16 -7 -16 -15 0 -8 -7 -15 -15 -15 -8 0 -15 -6 -15 -14 0
-8 -7 -16 -15 -20 -8 -3 -12 -12 -9 -21 4 -10 0 -15 -11 -15 -9 0 -14 -4 -10
-9 3 -6 -3 -14 -12 -20 -10 -6 -14 -11 -10 -11 4 0 3 -9 -3 -20 -6 -11 -15
-18 -21 -15 -5 4 -9 -1 -9 -9 0 -9 -5 -16 -11 -16 -5 0 -7 -4 -4 -10 3 -5 -3
-15 -15 -22 -11 -7 -20 -23 -20 -35 0 -14 -9 -25 -27 -31 -16 -6 -22 -11 -15
-11 18 -1 -10 -31 -30 -32 -10 0 -10 -2 -1 -6 16 -6 -2 -43 -20 -43 -8 0 -7 4
3 11 13 9 13 10 0 6 -8 -2 -15 -10 -15 -18 0 -16 -13 -20 -149 -49 -191 -41
-262 -50 -397 -50 -145 0 -230 16 -319 59 -115 56 -139 105 -156 313 -7 86
-18 166 -24 177 -9 18 -25 73 -62 216 -5 22 -11 51 -13 65 -4 44 -26 124 -34
130 -5 3 -26 37 -49 77 -39 70 -93 133 -112 133 -12 0 -43 60 -36 68 4 3 12 0
18 -6 7 -7 20 -12 29 -12 10 0 21 -9 24 -20 4 -11 11 -17 17 -14 7 5 9 2 7 -7
-3 -8 7 -27 23 -42 15 -15 28 -23 28 -18 0 5 -4 12 -9 15 -5 3 -13 19 -19 34
-9 26 -8 28 17 28 30 -1 66 -29 57 -45 -4 -5 1 -14 11 -20 10 -5 27 -27 38
-48 32 -62 66 -115 71 -110 4 4 -22 53 -77 143 l-19 32 26 17 c26 17 27 17 22
-3 -4 -14 -1 -18 11 -15 11 3 27 -16 54 -66 21 -39 42 -73 47 -76 10 -6 -4 29
-33 83 -15 28 -16 36 -5 49 11 14 10 15 -10 9 -13 -4 -22 -3 -22 3 0 5 9 12
20 16 21 7 40 0 40 -15 0 -5 12 -21 26 -35 25 -25 25 -27 8 -46 -9 -10 -12
-19 -6 -19 6 0 13 4 17 10 3 5 12 7 20 3 9 -3 15 1 15 9 0 7 9 19 20 25 16 11
21 9 35 -10 15 -21 15 -21 9 13 -4 19 -11 38 -17 41 -5 4 -5 15 2 28 10 18 9
21 -10 18 -12 -1 -24 4 -26 13 -4 13 -3 13 6 0 9 -13 15 -8 13 11 -1 4 7 5 18
2 23 -6 46 -31 37 -40 -7 -6 22 -32 36 -33 4 0 3 9 -3 20 -8 15 -7 26 6 45 16
25 34 25 34 0 0 -7 7 -15 15 -18 11 -5 13 0 10 21 -3 16 1 35 10 47 15 19 17
19 29 3 22 -30 27 -20 7 13 -17 28 -17 33 -4 60 16 33 28 39 20 10 -3 -12 1
-18 12 -17 11 1 16 -7 16 -25 -1 -18 4 -25 12 -22 16 6 17 35 1 51 -8 8 -8 15
2 27 17 20 34 19 25 -2 -5 -15 -4 -16 7 -5 10 10 16 8 31 -10 l19 -23 -6 28
c-4 15 -1 37 5 50 l12 22 -23 -20 c-20 -17 -23 -18 -17 -3 4 11 2 18 -6 18 -7
0 -1 6 13 13 22 12 27 11 43 -7 10 -11 16 -28 14 -38 -6 -22 9 -24 17 -2 9 23
-3 62 -22 69 -15 5 -13 9 8 25 18 14 28 16 38 8 7 -6 15 -8 19 -4 3 3 1 6 -5
6 -7 0 -12 11 -12 25 0 14 5 25 11 25 6 0 7 5 2 13 -20 33 -2 51 26 25 11 -11
12 -8 6 12 -4 14 -12 26 -16 28 -13 5 -11 22 5 38 20 20 40 18 32 -3 -4 -10
-4 -14 0 -10 4 4 13 2 21 -4 10 -9 13 -8 13 4 0 9 -5 19 -10 22 -6 4 -8 10 -6
14 3 4 -4 18 -16 31 -25 27 -31 95 -8 95 8 0 29 -21 45 -47 17 -26 33 -48 37
-48 10 0 -112 234 -123 238 -5 2 -6 8 -3 13 3 6 -3 18 -15 28 -11 10 -17 21
-13 25 4 4 -1 13 -11 21 -15 11 -16 17 -6 38 10 22 14 24 26 11 8 -7 11 -18 8
-24 -3 -5 1 -10 9 -10 17 0 21 -15 7 -24 -5 -4 -12 0 -15 6 -2 7 -3 2 -2 -11
3 -28 26 -42 26 -16 0 14 2 15 15 2 8 -8 30 -42 50 -76 32 -55 55 -82 55 -66
0 4 -8 19 -18 33 -55 79 -83 143 -77 171 5 22 10 28 26 24 10 -3 19 -10 19
-17 0 -6 11 -24 25 -40 29 -34 33 -26 6 12 -31 46 -101 180 -101 197 0 8 -4
15 -9 15 -5 0 -18 15 -30 33 -24 38 -28 20 -5 -24 8 -17 13 -33 10 -36 -3 -3
4 -14 15 -24 20 -17 20 -18 0 -28 -27 -15 -47 -5 -62 32 -14 35 -39 65 -39 48
0 -6 16 -40 36 -77 34 -62 35 -66 17 -80 -12 -8 -13 -13 -5 -14 7 0 10 -5 7
-11 -12 -18 -43 19 -38 45 3 13 0 32 -6 43 -6 11 -11 13 -11 5 0 -10 -3 -10
-15 1 -10 11 -13 25 -8 48 4 23 3 30 -5 25 -7 -4 -12 -14 -12 -22 0 -10 -9 -5
-25 13 l-25 28 23 -52 c13 -29 29 -58 35 -65 7 -9 7 -19 2 -28 -8 -13 -10 -12
-10 2 0 12 -6 15 -21 11 -20 -6 -21 -3 -15 33 4 25 3 34 -3 25 -7 -11 -10 -10
-14 5 -3 13 -5 9 -6 -10 -1 -35 -17 -25 -23 14 -2 14 -9 24 -16 22 -6 -1 -12
7 -12 19 0 11 -7 27 -15 36 -8 8 -13 19 -10 24 4 5 -1 9 -9 9 -9 0 -16 5 -16
10 0 6 -5 10 -10 10 -7 0 -7 -6 0 -20 6 -11 7 -20 3 -20 -4 0 -3 -4 2 -8 15
-11 50 -76 36 -68 -7 5 -11 -2 -11 -19 0 -47 -25 -21 -30 31 -3 27 -8 44 -13
37 -4 -6 -4 -19 0 -30 6 -16 5 -16 -10 -5 -8 8 -13 20 -10 28 3 9 0 12 -9 9
-12 -5 -9 -17 14 -62 19 -39 25 -60 18 -67 -7 -7 -14 -6 -22 2 -7 7 -8 12 -4
12 5 0 3 7 -4 15 -7 8 -16 12 -21 9 -5 -3 -9 0 -9 5 0 6 6 11 13 11 8 0 7 3
-3 10 -8 5 -19 5 -23 1 -11 -11 1 -91 14 -91 5 0 9 -8 8 -17 0 -11 -3 -13 -6
-5 -7 18 -31 15 -36 -5 -4 -14 -5 -12 -6 5 0 12 -5 22 -11 22 -5 0 -10 5 -10
11 0 7 -8 18 -17 25 -17 13 -17 14 1 7 13 -4 17 -3 12 5 -4 7 -14 12 -21 12
-8 0 -21 16 -29 35 -17 39 -42 49 -31 13 7 -23 7 -23 -9 -3 -9 12 -15 15 -16
7 0 -22 20 -52 35 -52 20 0 19 -26 -2 -34 -9 -4 -23 0 -32 9 -12 12 -12 15 -2
15 8 0 -1 15 -20 34 -38 39 -64 28 -27 -11 12 -13 18 -26 15 -30 -4 -3 -2 -12
4 -20 9 -9 8 -13 0 -13 -6 0 -16 10 -21 23 -5 12 -9 18 -9 13 -1 -4 -15 6 -33
23 -34 33 -54 40 -44 16 3 -8 1 -15 -4 -15 -6 0 -5 -8 2 -20 14 -23 8 -33 -16
-24 -9 4 -15 13 -12 20 3 7 -1 20 -9 28 -11 11 -12 16 -2 19 9 4 8 8 -3 16
-11 8 -16 7 -19 -6 -2 -12 -8 -10 -27 13 l-23 29 19 -39 c14 -28 16 -42 9 -47
-14 -9 -3 -29 17 -29 16 0 19 -26 4 -35 -5 -3 -10 -2 -10 4 0 5 -10 13 -22 16
-13 4 -30 16 -39 27 -14 18 -17 18 -28 4 -11 -13 -11 -16 0 -16 19 0 46 -43
30 -48 -6 -2 -11 -10 -11 -18 0 -8 -5 -14 -11 -14 -6 0 -9 6 -6 13 6 16 -12
49 -23 42 -5 -3 -23 15 -40 40 -17 25 -28 45 -25 45 4 0 0 7 -8 15 -9 8 -17
20 -20 27 -2 7 -8 10 -12 6 -4 -4 -2 -14 5 -23 7 -8 9 -15 5 -15 -3 0 3 -12
15 -27 16 -20 18 -28 8 -35 -10 -6 -9 -8 3 -8 9 0 19 -7 23 -15 4 -10 -1 -15
-15 -15 -11 0 -17 5 -14 10 3 6 -1 10 -9 10 -10 0 -13 6 -10 15 6 15 -29 55
-48 55 -4 0 -8 6 -8 13 0 7 -8 17 -19 24 -21 13 -65 93 -51 93 6 0 10 5 10 10
0 16 -17 12 -24 -6 -3 -8 1 -29 9 -45 9 -16 13 -34 10 -39 -3 -6 1 -10 9 -10
16 0 32 -42 22 -58 -3 -5 1 -15 9 -22 7 -6 12 -17 9 -25 -3 -7 6 -25 20 -40
14 -15 26 -32 26 -36 0 -5 8 -9 18 -9 16 -1 16 -1 0 -11 -24 -13 -23 -26 2
-34 21 -7 28 -25 10 -25 -17 0 -55 43 -42 48 7 2 12 8 12 13 0 4 -6 6 -14 3
-19 -7 -45 32 -38 58 4 17 2 20 -11 15 -14 -5 -17 0 -17 24 0 33 -26 72 -50
77 -8 2 -19 9 -23 15 -5 7 -6 4 -2 -8 4 -11 8 -27 8 -35 0 -8 6 -21 14 -28 10
-10 11 -18 3 -26 -13 -16 -3 -26 18 -19 10 4 13 2 8 -5 -4 -7 -1 -12 7 -12 7
0 23 -18 35 -41 26 -49 26 -49 6 -49 -8 0 -12 5 -8 11 4 8 1 8 -14 0 -18 -10
-23 -8 -34 11 -47 86 -98 161 -104 155 -6 -6 17 -57 26 -57 4 0 12 -12 19 -27
10 -21 9 -28 -1 -34 -10 -7 -10 -9 0 -9 6 0 12 -6 12 -14 0 -7 9 -16 20 -19
11 -3 20 -11 20 -17 0 -7 -7 -10 -16 -6 -8 3 -12 2 -9 -4 3 -6 12 -10 20 -10
15 0 59 -69 50 -78 -3 -4 -11 0 -16 8 -8 11 -9 5 -5 -24 5 -37 4 -38 -14 -21
-10 9 -24 31 -31 48 -7 18 -23 47 -36 65 -12 19 -30 51 -40 73 -9 21 -23 39
-30 39 -19 0 -16 -17 5 -29 15 -9 15 -13 4 -32 -12 -19 -12 -21 1 -16 18 7 37
-11 31 -28 -3 -7 3 -19 13 -26 10 -8 25 -27 33 -44 8 -16 18 -32 21 -35 4 -3
14 -22 23 -43 15 -37 15 -38 -4 -33 -11 3 -29 8 -39 11 -18 6 -45 56 -44 82 0
7 -3 10 -8 7 -13 -7 -50 58 -45 79 3 12 -2 17 -15 17 -22 0 -24 -11 -7 -28 7
-7 9 -12 5 -12 -3 0 5 -16 18 -36 14 -20 25 -43 25 -50 0 -8 3 -14 8 -14 8 0
42 -57 42 -71 0 -5 -7 -9 -16 -9 -10 0 -14 -6 -10 -15 9 -25 -12 -17 -31 11
-13 21 -14 30 -5 45 18 28 15 34 -7 15 -18 -17 -20 -16 -26 3 -3 12 -11 21
-16 21 -14 0 -11 -6 17 -51 l26 -41 -23 -16 c-20 -14 -21 -16 -5 -28 11 -7 13
-15 7 -18 -6 -4 -22 11 -36 34 -14 22 -27 40 -30 40 -6 0 6 -32 18 -47 5 -7 7
-20 3 -28 -3 -9 -2 -13 4 -10 6 3 10 2 10 -3 0 -6 -7 -12 -15 -16 -8 -3 -15
-11 -15 -18 0 -9 3 -8 10 2 11 17 13 10 4 -14 -5 -14 -10 -12 -30 11 -26 31
-31 22 -10 -16 8 -14 11 -32 8 -40 -3 -9 -1 -12 6 -7 8 4 12 0 11 -11 -1 -22
-17 -63 -18 -45 -1 6 -6 11 -11 10 -6 -2 -24 20 -40 47 -16 28 -30 46 -30 42
0 -16 69 -149 96 -184 30 -39 23 -61 -8 -23 -11 14 -16 19 -12 11 5 -11 3 -13
-10 -8 -10 4 -21 7 -26 7 -4 0 -13 14 -20 31 -8 19 -16 26 -20 19 -5 -9 -9 -9
-14 -1 -4 6 -5 15 -2 20 3 5 -6 12 -19 15 -23 6 -25 10 -19 41 4 25 2 39 -10
50 -9 9 -16 24 -17 33 -1 15 -5 54 -10 90 -3 16 -26 16 -32 0 -3 -8 -6 -5 -6
5 -1 10 -5 16 -11 12 -5 -3 -7 -12 -3 -20 7 -20 1 -19 -47 6 -38 20 -55 37
-26 26 10 -4 13 -1 9 9 -3 7 -11 14 -18 14 -8 0 -20 6 -27 13 -18 17 -116 77
-127 77 -5 0 -12 12 -15 28 -4 15 -10 36 -13 47 -6 19 -5 20 15 2 11 -10 29
-17 39 -14 15 3 14 6 -9 15 -14 6 -29 16 -33 21 -3 6 -11 11 -17 11 -12 0 -3
-93 13 -122 6 -11 6 -18 0 -18 -13 0 -22 28 -28 89 -2 29 -9 65 -14 78 -14 38
-11 93 5 93 8 0 44 -18 81 -41 88 -53 107 -60 80 -29 -14 16 -16 24 -7 27 6 3
12 11 12 19 0 23 16 16 28 -11 17 -36 15 -55 -5 -55 -12 0 -5 -9 19 -25 20
-14 40 -25 43 -25 3 0 23 -11 45 -25 l39 -24 4 27 c4 25 4 24 6 -5 1 -40 -4
-40 -51 -8 -20 14 -39 25 -42 25 -3 0 -58 32 -122 70 -65 39 -121 70 -126 70
-9 0 -10 -45 -2 -77 4 -13 12 -23 19 -23 7 0 34 -12 60 -27 27 -15 45 -22 41
-15 -3 6 -29 23 -56 38 -39 21 -50 33 -50 51 l0 25 48 -29 c27 -15 105 -62
175 -103 120 -70 145 -90 113 -90 -19 0 -27 -60 -9 -67 7 -3 10 -9 7 -14 -3
-5 -1 -16 4 -24 6 -12 12 2 20 49 12 61 9 96 -7 96 -10 0 -8 67 2 76 13 13 7
31 -18 58 -35 38 -75 116 -75 146 0 14 11 46 25 72 14 26 25 53 25 60 0 7 9
19 20 26 26 16 25 29 -2 28 -20 -1 -23 5 -26 48 -5 72 35 145 91 170 23 10 59
21 79 23 38 6 48 13 94 71 l26 33 -83 -7 c-46 -4 -86 -9 -89 -11 -2 -2 2 -14
9 -26 13 -21 13 -21 -4 -7 -11 8 -28 23 -38 33 -10 10 -25 16 -33 13 -8 -3
-17 0 -20 7 -2 7 -16 14 -30 15 -36 3 -41 8 -64 57 -30 66 -36 125 -16 167 24
50 59 80 151 128 44 23 82 45 85 48 3 4 28 19 55 33 62 32 78 61 64 115 -6 21
-16 44 -21 49 -8 7 -9 5 -5 -7 16 -45 17 -84 4 -102 -14 -19 -15 -19 -29 9
-10 17 -18 24 -22 16 -4 -6 -11 -11 -15 -11 -10 0 14 162 32 223 14 42 13 49
0 63 -21 20 -27 11 -11 -16 9 -17 10 -24 2 -27 -7 -2 -10 -12 -7 -22 6 -22
-16 -39 -27 -22 -5 8 -23 10 -58 5 -29 -3 -52 -3 -52 2 1 20 41 56 55 50 8 -3
15 -1 15 5 0 17 -30 22 -55 9 -13 -7 -29 -10 -37 -7 -9 3 -5 9 12 16 23 10 23
11 3 7 -13 -2 -23 -1 -23 3 0 4 25 13 55 20 l55 12 -20 21 c-23 25 -15 46 10
23 12 -11 24 -13 41 -7 28 10 52 5 43 -10 -3 -5 4 -20 17 -34 22 -24 23 -24
41 -4 10 11 23 20 28 20 5 0 12 9 15 20 4 12 27 41 51 67 38 39 47 43 60 32
14 -11 15 -10 12 6 -1 11 2 20 7 21 6 0 18 4 29 9 12 5 21 3 27 -6 7 -11 9 -9
9 7 0 29 27 38 57 19 23 -15 24 -15 21 2 -2 14 5 19 30 21 19 2 32 -1 32 -8 0
-7 11 -9 33 -4 42 9 120 14 288 18 75 2 152 6 171 10 35 6 36 8 31 45 -5 38
-5 39 25 35 25 -3 29 0 25 16 -4 15 -9 17 -30 9 -16 -6 -31 -6 -41 1 -10 5
-12 10 -4 10 18 0 15 18 -5 23 -14 4 -13 5 4 6 12 0 27 9 32 19 6 9 11 13 11
8 0 -6 6 -2 13 8 13 17 16 17 46 -15 l33 -34 -16 32 -16 33 25 -10 c14 -5 24
-6 24 -2 -3 16 2 23 11 17 6 -3 10 -15 10 -26z m1454 14 c8 -19 -15 -38 -25
-21 -4 7 -8 6 -12 -3 -3 -8 -6 -2 -6 14 -1 20 4 27 18 27 10 0 22 -8 25 -17z
m-147 -35 c-3 -10 0 -18 6 -18 6 0 8 -3 5 -6 -4 -3 -16 0 -28 6 -15 8 -19 15
-12 22 6 6 8 18 4 27 -5 14 -4 14 12 2 10 -8 15 -23 13 -33z m-2577 13 c0 -5
-10 -34 -21 -65 -21 -55 -20 -86 3 -86 9 0 9 3 0 12 -7 7 -12 17 -12 23 0 6 3
6 8 -1 4 -6 18 -15 32 -19 23 -7 24 -7 10 10 -14 16 -13 17 8 11 29 -9 29 10
1 40 -17 18 -19 26 -10 43 15 27 28 27 27 -1 -1 -17 4 -22 17 -20 14 2 16 -2
12 -21 -5 -19 -2 -25 14 -30 15 -3 21 -13 21 -32 0 -15 -4 -24 -10 -20 -5 3
-10 13 -10 21 0 22 -36 11 -64 -19 -25 -27 -54 -38 -40 -15 4 7 3 8 -4 4 -6
-4 -9 -13 -6 -21 5 -11 11 -12 24 -5 10 6 25 10 32 9 7 0 -4 -7 -24 -16 -21
-8 -38 -21 -38 -29 0 -8 -4 -14 -10 -14 -5 0 -10 11 -10 25 0 14 4 25 8 25 10
0 8 27 -3 53 -4 9 -5 24 -1 32 3 8 1 15 -4 15 -6 0 -10 12 -10 26 0 21 4 25
20 21 17 -4 20 0 20 24 0 16 5 29 10 29 6 0 10 -4 10 -9z m2560 -57 c0 -10 5
-14 16 -10 8 3 12 2 9 -4 -3 -6 -1 -10 4 -10 6 0 11 -5 11 -11 0 -5 -4 -7 -10
-4 -5 3 -20 0 -32 -6 -22 -12 -22 -11 -8 6 14 17 13 18 -4 12 -14 -6 -17 -4
-12 9 3 8 6 20 6 25 0 5 5 9 10 9 6 0 10 -7 10 -16z m-2408 -46 c-6 -6 -15 -8
-19 -4 -4 4 -1 11 7 16 19 12 27 3 12 -12z m54 -35 c1 -12 -3 -20 -8 -17 -5 3
-7 9 -3 12 3 3 -5 12 -17 19 l-23 13 25 -2 c18 -2 25 -9 26 -25z m44 7 c0 -5
-2 -10 -4 -10 -3 0 -8 5 -11 10 -3 6 -1 10 4 10 6 0 11 -4 11 -10z m2359 -15
c8 0 16 -6 19 -13 2 -8 -3 -10 -15 -6 -12 4 -9 -1 10 -18 15 -14 27 -33 27
-42 0 -15 -4 -14 -29 6 -15 13 -26 27 -23 32 3 5 -2 7 -11 3 -14 -5 -17 0 -17
31 1 31 3 34 13 22 7 -8 18 -15 26 -15z m-2539 -40 c0 -15 -6 -25 -14 -25 -11
0 -12 5 -3 25 15 31 17 31 17 0z m83 1 c-1 -22 57 -60 71 -46 6 6 18 10 29 10
17 0 17 -1 2 -16 -12 -12 -26 -15 -58 -10 -40 6 -41 5 -17 -9 17 -10 20 -14 9
-15 -22 0 -49 32 -31 37 20 7 3 23 -24 23 -13 0 -24 6 -25 13 0 9 -2 9 -6 -1
-2 -7 -13 -17 -23 -22 -16 -9 -17 -7 -6 15 19 42 83 59 79 21z m70 -15 c4 -4
0 -8 -10 -8 -10 0 -24 7 -32 15 -13 13 -12 14 9 7 14 -4 29 -10 33 -14z m2477
-87 c6 -27 12 -55 13 -62 2 -8 10 -17 17 -22 8 -5 11 -12 8 -16 -4 -4 -3 -15
3 -25 8 -15 6 -21 -7 -26 -16 -6 -16 -7 0 -18 9 -7 18 -27 21 -46 4 -27 3 -29
-3 -9 -4 14 -14 25 -21 25 -16 0 -25 61 -11 70 6 4 8 11 4 16 -3 5 -9 7 -13 4
-5 -2 -11 23 -14 56 -4 33 -10 72 -13 87 -4 15 -4 24 0 21 3 -3 11 -28 16 -55z
m-2600 6 c0 -23 -5 -30 -19 -30 -24 0 -39 39 -20 51 26 16 39 9 39 -21z m2437
24 c-3 -3 -12 -4 -19 -1 -8 3 -5 6 6 6 11 1 17 -2 13 -5z m-2387 -14 c0 -5 -7
-10 -15 -10 -8 0 -15 5 -15 10 0 6 7 10 15 10 8 0 15 -4 15 -10z m2438 -25
c-3 -3 -9 2 -12 12 -6 14 -5 15 5 6 7 -7 10 -15 7 -18z m-2349 -14 c20 -27 29
-52 14 -38 -3 4 -11 0 -17 -7 -17 -22 -51 -24 -50 -4 1 10 -1 16 -5 14 -3 -2
-14 2 -25 9 -22 16 -11 39 15 32 12 -3 19 0 19 9 0 24 28 15 49 -15z m-109
-16 c0 -8 -4 -15 -10 -15 -5 0 -10 7 -10 15 0 8 5 15 10 15 6 0 10 -7 10 -15z
m2464 -1 c10 -4 15 -17 15 -33 -2 -23 -2 -24 -6 -3 -2 12 -8 20 -13 17 -4 -3
-10 2 -14 10 -6 17 -4 18 18 9z m69 -74 c-8 -29 -24 -36 -19 -8 3 13 5 24 5
26 1 1 5 2 10 2 5 0 7 -9 4 -20z m127 -184 c0 -12 -5 -7 -19 24 -11 24 -11 24
3 6 9 -11 16 -24 16 -30z m-1186 -2 c3 -8 2 -12 -4 -9 -6 3 -10 10 -10 16 0
14 7 11 14 -7z m-1489 -24 c-4 -12 -9 -19 -12 -17 -3 3 -2 15 2 27 4 12 9 19
12 17 3 -3 2 -15 -2 -27z m2692 -109 c-6 -39 -14 -71 -18 -71 -4 0 -3 19 3 43
5 23 7 67 4 97 -6 52 -5 53 8 28 12 -22 12 -40 3 -97z m-57 89 c0 -5 -2 -10
-4 -10 -3 0 -8 5 -11 10 -3 6 -1 10 4 10 6 0 11 -4 11 -10z m-2659 -51 c-5
-13 -10 -19 -10 -12 -1 15 10 45 15 40 3 -2 0 -15 -5 -28z m1559 5 c0 -8 -4
-12 -10 -9 -5 3 -10 10 -10 16 0 5 5 9 10 9 6 0 10 -7 10 -16z m350 -40 c0 -8
-4 -12 -10 -9 -5 3 -10 13 -10 21 0 8 5 12 10 9 6 -3 10 -13 10 -21z m-1926
-89 c-11 -7 -46 -28 -79 -46 -68 -35 -109 -70 -136 -114 -11 -16 -19 -25 -19
-20 0 6 8 22 17 35 10 14 17 26 15 28 -1 1 1 2 4 1 3 0 13 8 22 19 9 10 33 27
52 37 19 10 38 22 42 28 3 6 14 12 23 13 24 4 65 33 66 47 0 9 2 8 6 -1 3 -7
-3 -19 -13 -27z m2703 -82 c0 -79 -1 -82 -7 -33 -6 46 -3 120 5 120 1 0 2 -39
2 -87z m3 -152 c-6 -27 -11 -69 -10 -93 1 -24 1 -47 -1 -53 -1 -5 -3 -28 -5
-50 -1 -22 -7 -63 -14 -92 -14 -59 -6 -128 13 -116 9 5 9 3 1 -8 -9 -12 -16
-93 -18 -226 -1 -17 -4 -29 -8 -26 -5 2 -8 -14 -8 -36 0 -22 -4 -42 -8 -45 -5
-3 -5 21 0 52 17 109 24 247 15 300 -6 36 -6 71 2 105 7 29 14 93 16 142 4 90
24 210 33 201 2 -3 -1 -27 -8 -55z m-2940 23 c0 -8 -5 -12 -10 -9 -6 4 -8 11
-5 16 9 14 15 11 15 -7z m3 -86 c3 -21 2 -38 -2 -38 -4 0 -8 19 -10 42 -3 51
4 48 12 -4z m72 -158 c14 -27 23 -50 21 -50 -6 0 -86 147 -86 157 0 10 33 -43
65 -107z m95 -69 c0 -12 -6 -9 -20 9 -26 33 -26 48 0 25 11 -10 20 -25 20 -34z
m2279 -23 c0 7 5 11 9 8 11 -6 8 -52 -3 -49 -4 1 -16 14 -26 29 -14 22 -16 31
-6 43 10 12 13 9 18 -15 4 -16 7 -23 8 -16z m-2328 10 c11 -21 11 -22 -4 -9
-10 7 -17 17 -17 22 0 15 9 10 21 -13z m2303 -43 c21 -39 23 -50 14 -70 -16
-36 -30 -31 -61 25 -23 40 -26 53 -17 70 17 31 36 24 64 -25z m-2303 -8 c-6
-8 -17 -32 -25 -53 l-14 -39 1 36 c1 21 5 35 8 33 3 -2 12 8 19 21 7 14 15 23
18 20 3 -2 0 -11 -7 -18z m2834 5 c-3 -3 -11 0 -18 7 -9 10 -8 11 6 5 10 -3
15 -9 12 -12z m-586 -53 c29 -51 32 -91 10 -113 -11 -12 -22 3 -63 79 -25 45
-27 56 -17 69 22 27 39 18 70 -35z m-2275 -174 c4 -13 -3 -34 -18 -60 -14 -22
-26 -35 -26 -30 0 6 7 20 15 32 16 23 17 35 11 123 l-4 55 8 -50 c4 -27 11
-59 14 -70z m-41 -167 c2 -27 1 -48 -3 -48 -3 0 -7 26 -8 58 -1 65 4 60 11
-10z m1337 38 c0 -3 -4 -8 -10 -11 -5 -3 -10 -1 -10 4 0 6 5 11 10 11 6 0 10
-2 10 -4z m17 -30 c-3 -8 1 -17 9 -20 8 -3 14 -11 14 -17 0 -7 -3 -9 -7 -6 -3
4 -12 -1 -19 -11 -12 -16 -13 -16 -20 1 -3 10 -2 29 4 43 12 25 28 34 19 10z
m263 -19 c0 -4 5 -5 12 -1 8 5 9 2 5 -9 -3 -10 -2 -17 4 -17 6 0 3 -7 -5 -16
-9 -8 -16 -21 -16 -27 0 -6 -7 -1 -16 11 -9 13 -13 29 -11 36 3 8 1 18 -5 24
-8 8 -5 11 11 9 11 -1 21 -5 21 -10z m1197 -44 c-3 -10 -5 -4 -5 12 0 17 2 24
5 18 2 -7 2 -21 0 -30z m-1849 -34 c26 -59 28 -77 8 -59 -8 6 -13 17 -10 25 3
7 0 16 -7 21 -9 5 -10 2 -6 -9 11 -28 -10 -28 -29 1 -24 36 -26 53 -6 50 10
-2 16 3 15 10 -7 30 14 8 35 -39z m133 34 c13 -16 12 -17 -3 -4 -10 7 -18 15
-18 17 0 8 8 3 21 -13z m188 -38 c0 -5 -4 -3 -9 5 -5 8 -9 22 -9 30 0 16 17
-16 18 -35z m-1261 10 c-3 -3 -9 2 -12 12 -6 14 -5 15 5 6 7 -7 10 -15 7 -18z
m632 10 c-7 -9 -15 -13 -17 -11 -7 7 7 26 19 26 6 0 6 -6 -2 -15z m75 5 c3 -5
1 -10 -4 -10 -6 0 -11 5 -11 10 0 6 2 10 4 10 3 0 8 -4 11 -10z m732 -37 c-3
-10 -5 -2 -5 17 0 19 2 27 5 18 2 -10 2 -26 0 -35z m-610 19 c0 -10 -7 -19
-13 -19 -15 0 -14 18 1 29 14 10 14 10 12 -10z m1978 -182 c-3 -58 -10 -121
-15 -140 -6 -23 -6 -12 -2 35 4 39 7 122 6 185 0 92 2 106 9 70 4 -25 5 -92 2
-150z m-2045 176 c0 -3 -4 -8 -10 -11 -5 -3 -10 -1 -10 4 0 6 5 11 10 11 6 0
10 -2 10 -4z m-720 -74 c0 -4 -9 7 -20 23 -11 17 -20 35 -20 40 0 6 9 -5 20
-23 11 -18 20 -36 20 -40z m2388 17 c-3 -8 -7 -3 -11 10 -4 17 -3 21 5 13 5
-5 8 -16 6 -23z m-3538 -30 c5 -7 133 -59 158 -63 7 -1 18 -8 25 -16 10 -11 8
-12 -8 -5 -11 4 -58 23 -104 40 -46 18 -86 37 -90 42 -3 6 -21 18 -38 27 -18
9 -33 19 -33 21 0 7 84 -36 90 -46z m1630 -26 c0 -8 5 -11 11 -7 6 3 9 15 6
25 -3 11 -1 19 4 19 5 0 9 -7 9 -15 0 -8 5 -15 10 -15 6 0 10 -5 10 -11 0 -6
-6 -9 -14 -6 -8 3 -17 1 -19 -6 -3 -7 -15 0 -31 18 -30 36 -34 56 -6 30 11
-10 20 -24 20 -32z m-1692 -8 c23 -9 42 -22 42 -27 0 -6 -6 -5 -15 2 -12 10
-15 10 -15 -1 0 -9 -4 -8 -12 3 -7 9 -26 23 -43 33 -34 18 -20 15 43 -10z
m2712 -3 c0 -15 -2 -15 -10 -2 -13 20 -13 33 0 25 6 -3 10 -14 10 -23z m-430
-6 c0 -3 -4 -8 -10 -11 -5 -3 -10 -1 -10 4 0 6 5 11 10 11 6 0 10 -2 10 -4z
m-2210 -20 c0 -3 -4 -8 -10 -11 -5 -3 -10 -1 -10 4 0 6 5 11 10 11 6 0 10 -2
10 -4z m108 -43 c34 -14 61 -28 59 -30 -2 -2 -35 10 -73 26 -38 17 -64 30 -59
31 6 0 38 -12 73 -27z m235 -43 c75 -30 134 -56 132 -58 -4 -5 -229 84 -265
105 -36 20 -21 15 133 -47z m2351 28 c9 -12 16 -27 16 -33 0 -5 -4 -4 -9 4 -8
12 -13 12 -24 3 -12 -10 -16 -9 -21 3 -3 9 1 18 10 22 13 5 13 7 2 14 -9 6 -9
9 -1 9 6 0 19 -10 27 -22z m-1798 -13 c18 -13 18 -14 -4 -8 -12 3 -25 9 -28
14 -8 14 10 11 32 -6z m-66 -14 c0 -11 -4 -21 -8 -23 -4 -1 -15 -21 -23 -43
-8 -22 -21 -40 -29 -40 -7 0 -15 -6 -18 -14 -3 -9 0 -11 8 -6 9 5 11 4 6 -3
-4 -7 13 -17 49 -28 31 -9 55 -18 52 -20 -2 -2 -39 7 -83 20 -43 14 -71 25
-61 25 15 1 22 12 18 34 -1 5 3 6 8 3 5 -4 17 12 27 34 10 22 21 40 26 40 4 0
8 9 8 20 0 11 5 20 10 20 6 0 10 -9 10 -19z m-577 -22 c15 -6 27 -15 27 -20 0
-5 23 -20 50 -34 28 -14 50 -28 50 -30 0 -3 -27 8 -60 25 -33 17 -60 34 -60
39 0 5 -10 11 -22 14 -13 4 -32 13 -43 22 -19 14 -19 15 5 5 14 -6 37 -15 53
-21z m747 -23 c0 -3 -18 3 -40 12 -22 9 -40 20 -40 25 0 4 18 -2 40 -13 22
-11 40 -22 40 -24z m534 8 c3 -8 2 -12 -4 -9 -6 3 -10 10 -10 16 0 14 7 11 14
-7z m-1006 -19 c-3 -3 -9 2 -12 12 -6 14 -5 15 5 6 7 -7 10 -15 7 -18z m-159
-9 c59 -28 272 -96 508 -162 95 -27 171 -50 169 -51 -1 -1 -48 -10 -105 -19
-82 -13 -105 -14 -114 -4 -9 10 -9 11 0 6 7 -4 51 -1 98 6 l86 12 -43 13 c-53
16 -50 16 -43 1 4 -7 1 -6 -7 3 -7 8 -53 27 -103 41 l-90 26 -25 -29 c-14 -16
-30 -29 -35 -29 -6 0 -64 32 -130 71 -66 39 -146 85 -177 101 -32 17 -58 32
-58 34 0 9 23 3 69 -20z m210 -23 c18 -4 22 -3 16 7 -5 9 -4 11 4 6 6 -4 9
-11 6 -15 -2 -5 9 -11 27 -15 17 -3 29 -8 26 -11 -3 -3 -38 6 -79 20 -66 22
-66 26 0 8z m3026 6 c-8 -11 25 -40 37 -33 4 3 5 -3 1 -12 -4 -11 -3 -15 5
-10 7 4 10 -1 7 -14 -3 -14 6 -31 24 -49 16 -16 32 -38 36 -50 3 -11 11 -21
16 -21 5 0 9 -4 9 -10 0 -5 -10 -10 -22 -10 -18 1 -36 22 -84 105 -34 57 -59
107 -56 110 10 10 33 5 27 -6z m-2475 -64 c0 -32 -1 -33 -25 -22 -27 13 -34
47 -10 47 8 0 15 5 15 11 0 5 5 7 10 4 6 -3 10 -21 10 -40z m-573 -61 c46 -25
85 -50 88 -55 12 -18 36 -8 54 22 15 24 20 27 25 14 3 -9 2 -14 -3 -11 -4 3
-13 -6 -19 -19 -12 -25 -45 -34 -57 -15 -4 6 -11 8 -16 5 -5 -4 -12 1 -15 9
-3 9 -9 16 -14 16 -4 0 -35 17 -70 38 -35 20 -66 37 -69 36 -6 0 -9 2 -51 37
-18 15 -13 14 20 -6 25 -14 82 -46 127 -71z m516 55 c4 -13 0 -19 -13 -19 -11
0 -19 9 -22 24 -4 18 -1 22 13 19 9 -3 19 -13 22 -24z m2791 -15 c-19 -45 -20
-110 -2 -133 12 -14 11 -14 -5 -2 -24 19 -33 6 -17 -24 10 -19 11 -34 2 -67
-8 -30 -10 -33 -7 -10 3 18 1 31 -4 28 -4 -3 -13 6 -20 20 -16 36 -14 40 9 14
25 -29 26 -17 1 18 -14 20 -16 33 -10 50 5 13 13 21 18 17 5 -3 9 7 9 22 0 28
31 117 38 110 3 -2 -3 -21 -12 -43z m-2957 -20 c-3 -3 -12 -4 -19 -1 -8 3 -5
6 6 6 11 1 17 -2 13 -5z m86 -20 c29 -9 61 -20 72 -25 30 -13 -28 0 -95 22
-68 22 -48 25 23 3z m157 -29 c0 -5 -5 -3 -10 5 -5 8 -10 20 -10 25 0 6 5 3
10 -5 5 -8 10 -19 10 -25z m1500 15 c0 -5 -4 -10 -10 -10 -5 0 -10 5 -10 10 0
6 5 10 10 10 6 0 10 -4 10 -10z m-1530 -26 c0 -2 -7 -4 -15 -4 -8 0 -15 4 -15
10 0 5 7 7 15 4 8 -4 15 -8 15 -10z m37 -10 c-3 -3 -12 -4 -19 -1 -8 3 -5 6 6
6 11 1 17 -2 13 -5z m-33 -23 c3 -5 -1 -11 -9 -15 -9 -3 -15 0 -15 9 0 16 16
20 24 6z m1466 -25 c0 -3 -4 -8 -10 -11 -5 -3 -10 -1 -10 4 0 6 5 11 10 11 6
0 10 -2 10 -4z m-1777 -13 c-7 -2 -19 -2 -25 0 -7 3 -2 5 12 5 14 0 19 -2 13
-5z m375 -9 c12 -8 22 -22 22 -30 0 -8 5 -14 11 -14 7 0 17 -8 24 -17 7 -9 28
-23 46 -30 30 -12 31 -13 5 -8 -33 7 -94 52 -101 76 -3 9 -15 19 -27 22 -25 7
-108 -2 -123 -13 -5 -4 -21 -4 -35 0 -21 6 -17 8 25 14 28 4 57 9 65 10 37 8
67 5 88 -10z m-498 -3 c0 -11 -76 -27 -160 -35 -38 -4 -47 -3 -30 3 14 5 43
10 65 11 31 1 89 15 123 29 1 1 2 -3 2 -8z m63 2 c-7 -2 -21 -2 -30 0 -10 3
-4 5 12 5 17 0 24 -2 18 -5z m2987 -9 c0 -8 -5 -12 -10 -9 -6 4 -8 11 -5 16 9
14 15 11 15 -7z m-2777 -11 c-7 -2 -19 -2 -25 0 -7 3 -2 5 12 5 14 0 19 -2 13
-5z m1582 -13 c-10 -11 -23 -20 -29 -20 -6 1 0 10 13 20 30 26 39 26 16 0z
m1235 10 c0 -5 -8 -10 -17 -10 -15 0 -16 2 -3 10 19 12 20 12 20 0z m-2887 -7
c-7 -2 -19 -2 -25 0 -7 3 -2 5 12 5 14 0 19 -2 13 -5z m-100 -18 c-48 -12
-186 -29 -153 -19 26 8 164 31 185 32 11 0 -3 -6 -32 -13z m-326 -1 c-3 -3
-12 -4 -19 -1 -8 3 -5 6 6 6 11 1 17 -2 13 -5z m3309 -9 c4 -8 11 -12 18 -8 6
3 8 3 4 -2 -4 -4 -3 -14 2 -20 13 -16 40 -105 32 -105 -4 0 -17 19 -30 42 -17
32 -19 43 -10 50 10 6 9 8 -3 8 -9 0 -24 11 -33 25 -15 22 -15 25 -1 25 9 0
18 -7 21 -15z m-3383 -2 c-7 -2 -21 -2 -30 0 -10 3 -4 5 12 5 17 0 24 -2 18
-5z m-64 -8 c-5 -4 -110 -20 -194 -29 -33 -3 -43 -2 -29 4 12 4 57 11 100 15
43 4 81 9 83 11 6 6 45 5 40 -1z m1236 -62 c10 -21 27 -50 37 -65 10 -14 18
-29 18 -32 0 -13 -38 -5 -44 9 -3 8 -14 15 -24 15 -11 0 -25 7 -32 15 -7 8 -9
15 -5 15 4 0 2 7 -5 15 -6 8 -9 24 -6 37 3 13 3 17 0 10 -3 -6 -10 -10 -15 -7
-5 4 -1 17 7 31 15 22 18 23 33 10 9 -8 25 -32 36 -53z m917 45 c-7 -7 -12 -8
-12 -2 0 14 12 26 19 19 2 -3 -1 -11 -7 -17z m-1869 5 c-7 -2 -19 -2 -25 0 -7
3 -2 5 12 5 14 0 19 -2 13 -5z m877 -3 c0 -5 -5 -10 -11 -10 -5 0 -7 5 -4 10
3 6 8 10 11 10 2 0 4 -4 4 -10z m-947 -7 c-7 -2 -19 -2 -25 0 -7 3 -2 5 12 5
14 0 19 -2 13 -5z m-468 -13 c-3 -5 -23 -9 -43 -9 l-37 2 40 7 c22 4 41 8 43
9 2 0 0 -3 -3 -9z m413 5 c-7 -7 -279 -47 -285 -42 -2 3 49 12 114 22 65 9
123 18 128 20 16 5 49 5 43 0z m993 -37 c20 -39 20 -42 3 -28 -66 50 -78 70
-44 70 13 0 27 -14 41 -42z m1029 33 c0 -13 -29 -35 -37 -28 -7 8 15 37 28 37
5 0 9 -4 9 -9z m-2577 -18 c-7 -2 -21 -2 -30 0 -10 3 -4 5 12 5 17 0 24 -2 18
-5z m1067 -3 c0 -5 -9 -10 -20 -10 -11 0 -20 5 -20 10 0 6 9 10 20 10 11 0 20
-4 20 -10z m375 -10 c18 0 85 -50 85 -63 0 -5 -7 -1 -16 8 -28 28 -59 45 -87
47 -15 1 -29 8 -32 15 -3 10 0 11 15 3 10 -5 26 -10 35 -10z m2490 -35 c1 -5
3 -16 3 -24 2 -11 5 -11 20 0 15 13 16 12 3 -3 -8 -11 -10 -25 -6 -35 4 -10 9
-25 10 -33 5 -40 19 -62 48 -75 l32 -14 -30 6 c-16 3 -33 11 -37 17 -10 14
-68 198 -67 211 0 10 20 -31 24 -50z m-2200 9 c14 -15 25 -35 25 -45 0 -11 4
-19 8 -19 12 0 44 -59 37 -70 -4 -6 -15 -4 -30 6 -13 9 -32 17 -41 18 -10 2
-18 10 -20 19 -1 9 -13 37 -27 61 -14 25 -22 47 -19 50 13 14 45 4 67 -20z
m-1510 6 c-3 -5 -12 -7 -20 -3 -21 7 -19 13 6 13 11 0 18 -4 14 -10z m-82 -7
c-7 -2 -19 -2 -25 0 -7 3 -2 5 12 5 14 0 19 -2 13 -5z m1032 -23 c11 -17 -5
-32 -21 -19 -8 6 -14 15 -14 20 0 12 27 11 35 -1z m1295 -23 c0 -7 -9 -23 -20
-37 l-20 -25 0 23 c0 26 21 63 32 56 4 -3 8 -11 8 -17z m-886 -22 c2 -7 21
-18 41 -25 20 -7 34 -14 32 -17 -8 -8 -72 24 -91 46 -16 17 -16 21 -4 16 9 -4
19 -12 22 -20z m696 5 c0 -5 -5 -10 -11 -10 -5 0 -7 5 -4 10 3 6 8 10 11 10 2
0 4 -4 4 -10z m104 -21 c9 1 10 -2 2 -26 -9 -28 -30 -31 -23 -3 3 11 1 20 -4
20 -4 0 -6 7 -2 16 4 11 8 12 13 4 4 -6 10 -11 14 -11z m-686 -49 c9 0 27 -10
40 -22 18 -17 26 -20 29 -10 4 10 10 7 20 -8 11 -16 18 -19 23 -10 6 10 14 7
31 -9 12 -11 26 -21 29 -21 10 0 106 -131 130 -178 26 -50 37 -112 20 -112 -7
0 -44 -33 -83 -72 -38 -40 -65 -64 -59 -52 11 20 92 102 125 126 22 16 18 44
-13 110 -15 30 -28 44 -37 41 -9 -3 -11 0 -7 10 11 29 -109 161 -129 141 -3
-3 -12 -2 -19 2 -7 5 -19 9 -27 10 -7 2 -23 11 -35 22 -11 11 -30 22 -40 24
-11 1 -21 9 -22 16 -1 7 0 8 3 2 2 -5 12 -10 21 -10z m542 -15 c-7 -9 -15 -13
-17 -11 -7 7 7 26 19 26 6 0 6 -6 -2 -15z m-819 -12 c19 -9 49 -27 68 -40 18
-12 38 -20 44 -16 6 3 7 1 3 -5 -4 -7 -1 -12 6 -12 16 0 65 -37 58 -43 -3 -3
-16 -8 -30 -12 -24 -7 -24 -6 -6 8 19 14 19 15 -2 26 -13 7 -27 9 -32 6 -5 -3
-11 -1 -14 4 -3 5 -17 12 -31 15 -28 7 -115 66 -115 78 0 12 13 10 51 -9z
m859 -14 c9 -16 8 -25 -6 -40 -23 -25 -28 -24 -43 7 -20 45 26 77 49 33z
m-2030 -19 c0 -11 -7 -20 -15 -20 -8 0 -15 9 -15 20 0 11 7 20 15 20 8 0 15
-9 15 -20z m3851 -15 c24 -9 52 -14 62 -11 9 2 17 1 17 -4 0 -4 12 -11 26 -14
15 -4 25 -9 23 -11 -6 -5 -148 33 -168 45 -24 14 -9 12 40 -5z m-2531 -61 c0
-2 -7 -4 -15 -4 -8 0 -15 4 -15 10 0 5 7 7 15 4 8 -4 15 -8 15 -10z m2703 9
c-7 -2 -19 -2 -25 0 -7 3 -2 5 12 5 14 0 19 -2 13 -5z m130 -43 c26 -16 47
-28 47 -26 0 10 161 -75 222 -117 36 -25 68 -44 70 -41 3 2 5 -2 5 -9 0 -6 4
-21 7 -32 4 -12 1 -9 -8 6 -17 30 -145 116 -228 153 -31 14 -59 26 -63 26 -3
0 -24 12 -47 26 -23 15 -54 30 -68 35 -21 6 -22 7 -4 8 11 1 41 -12 67 -29z
m-2734 -3 c6 -8 8 -17 5 -20 -4 -3 5 -4 19 -1 14 2 28 1 30 -3 3 -5 -8 -9 -25
-10 -31 -2 -62 18 -50 33 4 5 -1 2 -11 -5 -15 -12 -20 -12 -30 -1 -9 10 -9 11
1 6 6 -4 12 -2 12 3 0 16 35 14 49 -2z m146 -36 c3 -5 2 -12 -3 -15 -5 -3 -9
1 -9 9 0 17 3 19 12 6z m-44 -30 c13 -10 34 -21 46 -25 25 -8 39 -36 18 -36
-7 0 -20 7 -29 15 -8 8 -20 15 -26 15 -6 0 -23 11 -38 25 -33 30 -8 36 29 6z
m2649 -101 c-24 -15 -36 -11 -14 4 10 8 21 12 24 10 2 -3 -2 -9 -10 -14z m-30
-28 c0 -5 -9 -19 -20 -32 -25 -28 -27 -13 -2 18 19 24 22 26 22 14z m270 -37
c0 -8 -4 -15 -10 -15 -5 0 -10 7 -10 15 0 8 5 15 10 15 6 0 10 -7 10 -15z
m-324 -47 c-9 -13 -27 -40 -41 -60 -13 -20 -34 -46 -47 -57 -12 -12 -19 -21
-16 -21 21 0 -205 -199 -226 -200 -5 0 -23 -10 -40 -23 -17 -13 -39 -26 -49
-30 -11 -4 -15 -12 -11 -18 4 -7 3 -9 -3 -6 -5 4 -24 -4 -42 -17 -18 -13 -45
-30 -62 -36 -16 -7 -27 -16 -24 -20 3 -4 -1 -7 -8 -7 -6 1 -52 -18 -102 -42
-49 -23 -99 -45 -110 -47 -11 -2 -33 -10 -50 -18 -16 -7 -43 -18 -60 -24 -16
-5 -39 -13 -50 -16 -11 -4 -4 2 15 13 19 11 45 20 57 21 12 0 24 4 27 9 3 4
34 18 68 31 71 25 255 115 278 135 8 7 67 45 130 85 63 40 130 86 149 103 43
41 158 173 195 226 17 22 32 41 34 41 3 0 -3 -10 -12 -22z m94 -5 c0 -19 -13
-9 -16 12 -1 8 2 13 7 9 5 -3 9 -12 9 -21z m-30 -47 c0 -6 4 -4 10 4 5 8 12
11 17 7 4 -5 1 -12 -7 -17 -22 -14 -28 -12 -40 10 -9 16 -8 18 5 14 8 -4 15
-11 15 -18z m-2414 -92 c28 -53 29 -53 9 -68 -25 -19 -35 -20 -35 -2 0 8 -4
16 -8 18 -4 2 -20 25 -36 51 -27 47 -27 49 -11 74 l18 26 17 -23 c9 -13 30
-47 46 -76z m-136 77 c-20 -11 -162 -42 -167 -37 -3 2 33 13 79 24 95 23 109
25 88 13z m2585 -21 c3 -5 -1 -10 -10 -10 -9 0 -13 5 -10 10 3 6 8 10 10 10 2
0 7 -4 10 -10z m-2768 -26 c-3 -3 -12 -4 -19 -1 -8 3 -5 6 6 6 11 1 17 -2 13
-5z m-90 -26 c-9 -4 -40 -13 -69 -18 -29 -6 -62 -12 -73 -15 -11 -3 -6 2 10
10 17 8 44 14 61 15 16 0 39 6 49 14 11 8 24 12 29 9 5 -3 2 -10 -7 -15z
m2721 -9 c-2 -6 -8 -10 -13 -10 -5 0 -11 4 -13 10 -2 6 4 11 13 11 9 0 15 -5
13 -11z m176 -11 c-29 -46 -57 -60 -68 -33 -4 10 1 15 15 15 11 0 27 7 35 15
18 18 28 20 18 3z m-3249 -16 c-3 -3 -11 0 -18 7 -9 10 -8 11 6 5 10 -3 15 -9
12 -12z m180 -10 c-3 -3 -11 0 -18 7 -9 10 -8 11 6 5 10 -3 15 -9 12 -12z
m3121 2 c13 -11 15 -17 7 -20 -7 -3 -13 -12 -13 -19 0 -13 -40 -28 -50 -19 -3
4 5 13 17 21 21 14 22 50 0 36 -6 -3 -7 -1 -3 5 10 16 18 15 42 -4z m-2690
-20 c3 -37 4 -39 13 -25 7 11 10 9 16 -8 4 -13 1 -27 -8 -36 -13 -13 -18 -12
-41 6 -28 22 -32 39 -15 70 12 24 33 20 35 -7z m254 22 c0 -3 -4 -8 -10 -11
-5 -3 -10 -1 -10 4 0 6 5 11 10 11 6 0 10 -2 10 -4z m-1975 -23 c-11 -2 -32
-8 -47 -13 -17 -6 -28 -5 -28 1 0 5 7 9 16 9 8 0 13 4 10 8 -2 4 12 6 32 3 23
-3 29 -6 17 -8z m85 1 c0 -8 -5 -12 -10 -9 -6 4 -8 11 -5 16 9 14 15 11 15 -7z
m1140 6 c-103 -17 -209 -80 -310 -185 -73 -75 -105 -95 -150 -95 -20 0 -40 -9
-57 -26 -25 -26 -101 -59 -111 -49 -3 3 0 5 7 5 7 0 9 5 6 11 -4 6 -1 10 6 8
35 -4 57 4 89 34 24 22 44 32 65 31 43 -1 60 10 149 95 43 42 86 83 95 91 41
37 157 86 206 87 l50 1 -45 -8z m-1162 -37 c-2 -14 -15 -19 -56 -21 -29 -2
-50 -7 -48 -11 3 -4 -8 -5 -24 -3 -19 3 -27 9 -23 17 2 8 11 11 19 8 8 -3 14
0 14 5 0 10 31 17 93 20 22 2 28 -2 25 -15z m1594 -65 c-18 -19 -22 -20 -27
-6 -4 9 1 29 11 44 18 27 18 27 28 5 7 -17 5 -26 -12 -43z m248 42 c-13 -11
-25 -20 -28 -20 -3 0 3 9 13 20 10 11 23 20 28 20 6 0 0 -9 -13 -20z m2394
-25 c24 -25 49 -45 55 -45 7 0 26 -13 44 -30 18 -16 35 -30 40 -30 4 0 7 -6 7
-14 0 -8 14 -17 30 -21 17 -4 30 -13 30 -21 0 -8 7 -14 16 -14 11 0 14 -6 9
-21 -8 -24 23 -57 78 -83 40 -18 48 -41 18 -51 -31 -10 -111 38 -166 98 -68
74 -75 84 -75 99 0 18 -86 69 -105 62 -9 -4 -19 3 -26 20 -11 24 -21 30 -41
27 -5 0 -8 7 -8 16 0 13 3 14 12 5 7 -7 21 -12 33 -12 11 0 16 4 10 8 -11 8
-19 52 -9 52 3 0 25 -20 48 -45z m-3175 6 c-13 -11 -26 -17 -28 -15 -5 5 30
33 43 34 4 0 -2 -9 -15 -19z m3068 -7 c-9 -9 -28 6 -21 18 4 6 10 6 17 -1 6
-6 8 -13 4 -17z m-4319 9 c-10 -2 -26 -2 -35 0 -10 3 -2 5 17 5 19 0 27 -2 18
-5z m1978 -51 c-23 -23 -33 -6 -10 19 12 13 20 16 22 9 3 -7 -3 -19 -12 -28z
m-776 20 c0 -18 -35 -41 -49 -33 -10 7 -8 12 10 25 26 18 39 20 39 8z m3080
-2 c0 -5 -2 -10 -4 -10 -3 0 -8 5 -11 10 -3 6 -1 10 4 10 6 0 11 -4 11 -10z
m-2377 -21 c-6 -6 -17 -8 -24 -3 -9 5 -8 9 7 14 23 9 31 3 17 -11z m2820 -11
c4 -12 4 -24 1 -27 -6 -7 -24 20 -24 37 0 21 17 13 23 -10z m-2792 -42 c-11
-26 -31 -36 -31 -14 0 13 31 50 37 44 2 -2 -1 -15 -6 -30z m2209 14 c0 -5 -4
-10 -10 -10 -5 0 -10 5 -10 10 0 6 5 10 10 10 6 0 10 -4 10 -10z m545 0 c3 -5
3 -15 -1 -21 -6 -11 -23 6 -24 24 0 10 18 9 25 -3z m-2545 -107 c0 -37 -2 -64
-4 -62 -8 9 -13 138 -5 133 5 -3 9 -35 9 -71z m-23 5 c-3 -7 -5 -2 -5 12 0 14
2 19 5 13 2 -7 2 -19 0 -25z m1978 22 c3 -5 1 -10 -4 -10 -6 0 -11 5 -11 10 0
6 2 10 4 10 3 0 8 -4 11 -10z m-1988 -82 c-3 -7 -5 -2 -5 12 0 14 2 19 5 13 2
-7 2 -19 0 -25z m2393 12 c0 -4 -9 -15 -21 -26 -20 -18 -21 -18 -35 0 -18 25
-2 45 31 38 14 -2 25 -8 25 -12z m-569 -43 c-13 -13 -26 -3 -16 12 3 6 11 8
17 5 6 -4 6 -10 -1 -17z m369 14 c0 -5 -7 -11 -14 -14 -10 -4 -13 -1 -9 9 6
15 23 19 23 5z m-3671 -42 c-46 -15 -85 -27 -86 -25 -5 5 107 46 123 46 8 0
14 4 14 10 0 5 7 7 16 3 10 -4 -14 -16 -67 -34z m1541 -5 c0 -6 7 -17 15 -24
17 -14 20 -30 4 -30 -5 0 -8 4 -5 8 3 5 -3 14 -14 22 -10 7 -16 19 -13 26 2 6
0 15 -6 19 -6 3 -11 11 -11 18 0 14 29 -24 30 -39z m1630 36 c0 -5 -5 -10 -11
-10 -5 0 -7 -4 -4 -10 3 -5 2 -10 -3 -10 -6 0 -13 7 -16 16 -3 8 -2 12 4 9 6
-3 10 -1 10 4 0 6 5 11 10 11 6 0 10 -4 10 -10z m70 0 c0 -5 -4 -10 -10 -10
-5 0 -10 5 -10 10 0 6 5 10 10 10 6 0 10 -4 10 -10z m393 -14 c4 -10 1 -13 -9
-9 -7 3 -14 9 -14 14 0 14 17 10 23 -5z m257 10 c0 -2 -8 -10 -17 -17 -16 -13
-17 -12 -4 4 13 16 21 21 21 13z m-780 -16 c0 -5 -4 -10 -10 -10 -5 0 -10 5
-10 10 0 6 5 10 10 10 6 0 10 -4 10 -10z m-3016 -28 c-34 -31 -74 -53 -85 -46
-6 3 -9 -2 -7 -12 2 -12 -3 -19 -13 -19 -9 0 -24 -6 -33 -14 -14 -12 -19 -11
-34 7 -24 27 -51 13 -45 -23 4 -20 0 -27 -22 -35 -35 -13 -38 -13 -31 5 10 27
-10 16 -53 -30 -23 -25 -49 -45 -57 -45 -8 0 -12 4 -9 10 9 14 -53 1 -97 -21
-21 -11 -43 -19 -50 -19 -20 1 71 40 125 55 43 11 48 11 42 -4 -3 -9 18 7 47
35 89 86 213 157 229 132 8 -11 13 -5 11 13 -1 3 4 6 11 7 37 3 68 10 74 16 3
3 9 6 12 6 2 0 -4 -8 -15 -18z m3510 12 c25 -10 19 -31 -9 -31 -28 0 -27 -1
-19 21 7 18 7 18 28 10z m-494 -24 c0 -5 -4 -10 -10 -10 -5 0 -10 5 -10 10 0
6 5 10 10 10 6 0 10 -4 10 -10z m-3210 -5 c0 -3 -19 -17 -42 -31 -24 -15 -64
-44 -89 -65 -26 -22 -53 -39 -60 -38 -10 0 -10 2 1 6 8 3 29 18 45 33 28 26
133 100 141 100 2 0 4 -2 4 -5z m1140 -32 c-1 -14 -30 -47 -36 -41 -8 8 14 48
26 48 6 0 10 -3 10 -7z m610 -48 c23 -28 2 -16 -37 21 -33 32 -34 34 -7 16 17
-12 37 -28 44 -37z m1088 48 c-10 -2 -18 -8 -18 -13 0 -5 -8 -6 -17 -3 -15 6
-15 7 3 14 10 4 26 7 34 7 10 0 9 -2 -2 -5z m812 -13 c0 -5 -9 -10 -20 -10
-11 0 -23 -7 -26 -15 -9 -22 -24 -18 -24 6 0 15 5 19 15 15 8 -3 15 -1 15 4 0
6 9 10 20 10 11 0 20 -4 20 -10z m-880 -9 c-21 -11 -161 -44 -166 -38 -4 4
149 45 171 46 6 0 3 -3 -5 -8z m130 -7 c0 -8 -19 -13 -24 -6 -3 5 1 9 9 9 8 0
15 -2 15 -3z m210 -9 c0 -8 -4 -15 -10 -15 -5 0 -10 -4 -10 -10 0 -5 8 -10 18
-10 9 0 23 -4 31 -9 9 -6 5 -8 -15 -8 -31 0 -68 27 -46 35 6 2 12 10 12 18 0
8 5 14 10 14 6 0 10 -7 10 -15z m100 5 c0 -5 -7 -10 -15 -10 -8 0 -15 5 -15
10 0 6 7 10 15 10 8 0 15 -4 15 -10z m-60 -20 c0 -5 -4 -10 -10 -10 -5 0 -10
5 -10 10 0 6 5 10 10 10 6 0 10 -4 10 -10z m-190 -15 c0 -10 -10 -15 -27 -15
-26 0 -26 1 -7 15 25 19 34 19 34 0z m-1876 -40 c-17 -26 -18 -26 -31 -9 -11
15 -11 20 -1 23 7 2 17 10 22 18 5 10 11 12 18 5 6 -6 4 -19 -8 -37z m1479 38
c-7 -2 -19 -2 -25 0 -7 3 -2 5 12 5 14 0 19 -2 13 -5z m1019 -8 c0 -5 -5 -11
-11 -13 -6 -2 -11 4 -11 13 0 9 5 15 11 13 6 -2 11 -8 11 -13z m-1715 -15 c41
-11 95 -39 77 -40 -6 0 -25 7 -43 16 -17 9 -38 13 -46 10 -8 -3 -15 -1 -15 4
0 6 -6 10 -14 10 -8 0 -18 5 -22 12 -5 7 -2 9 9 5 9 -3 33 -11 54 -17z m638
10 c-11 -4 -45 -13 -75 -18 -30 -6 -85 -17 -122 -25 -38 -8 -72 -10 -80 -6 -9
6 -5 9 11 9 29 0 121 17 201 35 63 16 95 18 65 5z m360 0 c3 -5 -1 -10 -9 -10
-9 0 -16 5 -16 10 0 6 4 10 9 10 6 0 13 -4 16 -10z m395 0 c0 -5 -7 -7 -15 -4
-8 4 -15 8 -15 10 0 2 7 4 15 4 8 0 15 -4 15 -10z m-1750 -10 c0 -5 -4 -10
-10 -10 -5 0 -10 5 -10 10 0 6 5 10 10 10 6 0 10 -4 10 -10z m1050 -11 c0 -5
-4 -9 -8 -9 -5 0 -9 7 -9 15 0 8 4 12 9 9 4 -3 8 -9 8 -15z m363 -9 c16 -19
14 -50 -3 -50 -5 0 -15 -3 -24 -6 -11 -4 -16 -1 -16 10 0 10 8 16 22 16 20 0
20 1 5 18 -10 10 -17 22 -17 25 0 13 16 7 33 -13z m77 10 c0 -5 -4 -10 -10
-10 -5 0 -10 5 -10 10 0 6 5 10 10 10 6 0 10 -4 10 -10z m53 -4 c4 -10 1 -13
-9 -9 -7 3 -14 9 -14 14 0 14 17 10 23 -5z m-3275 -8 c-7 -4 -23 -8 -36 -8
-13 0 -33 -5 -45 -11 -22 -10 -22 -10 1 8 12 10 38 18 57 19 22 0 31 -3 23 -8z
m3096 -4 c3 -8 2 -12 -4 -9 -6 3 -10 10 -10 16 0 14 7 11 14 -7z m-2954 -11
c0 -27 -85 -132 -97 -119 -3 3 2 12 10 21 9 8 14 22 10 31 -4 10 2 17 16 21
14 4 24 16 28 34 6 31 33 41 33 12z m2599 -20 c6 6 11 7 11 3 0 -5 7 -3 15 4
10 8 15 9 15 2 0 -6 7 -9 15 -6 9 4 15 0 15 -7 0 -10 3 -10 8 -3 8 13 66 44
81 44 6 0 13 -11 17 -25 3 -14 10 -25 16 -25 5 0 6 5 2 12 -5 7 -2 9 9 5 8 -3
21 1 28 9 10 12 14 12 20 2 14 -22 10 -30 -11 -23 -12 4 -20 2 -20 -5 0 -7 9
-14 19 -17 10 -3 18 -12 17 -21 -3 -18 -26 -30 -26 -13 0 6 -10 11 -22 11 -18
0 -20 -2 -9 -9 12 -8 12 -12 -3 -26 -16 -16 -18 -16 -34 2 -19 22 -42 20 -42
-3 0 -22 -20 -16 -30 9 l-9 22 0 -23 c-1 -19 -5 -22 -22 -17 -14 5 -19 3 -18
-7 2 -7 -4 -26 -14 -43 -11 -21 -16 -24 -17 -12 0 19 -35 24 -46 5 -5 -8 -2
-9 9 -5 10 3 17 3 17 -2 0 -13 -31 -18 -60 -11 -21 5 -23 7 -9 16 14 7 15 11
4 21 -11 10 -15 9 -20 -7 -4 -11 -10 -20 -15 -20 -5 0 -7 -6 -4 -14 3 -9 -4
-16 -22 -20 -31 -8 -45 1 -24 15 13 8 13 10 0 19 -21 14 -36 12 -50 -4 -8 -11
-18 -12 -36 -6 -15 6 -24 6 -24 0 0 -6 -7 -10 -15 -10 -9 0 -12 -6 -9 -15 4
-9 0 -15 -10 -15 -9 0 -16 8 -17 18 0 10 -3 12 -6 5 -6 -15 -33 -17 -33 -3 0
6 -7 10 -15 10 -8 0 -15 -4 -15 -10 0 -5 -4 -10 -10 -10 -5 0 -10 6 -10 14 0
9 -10 12 -30 10 -24 -3 -30 0 -30 16 0 11 -4 20 -10 20 -5 0 -10 6 -10 13 0 7
-9 23 -21 36 -25 27 -18 41 8 15 17 -17 18 -17 21 1 2 9 -2 21 -9 26 -7 4 -10
11 -6 16 5 4 12 1 18 -7 7 -13 10 -13 18 -1 5 7 14 10 20 7 6 -4 11 -3 11 2 0
13 33 10 42 -3 4 -6 8 -2 8 8 0 16 13 23 35 17 24 -7 60 -6 65 1 6 8 49 17 93
18 16 1 26 5 23 10 -3 4 6 6 19 3 14 -2 28 -8 31 -13 9 -15 24 -10 18 6 -8 20
6 19 23 -2 13 -16 14 -16 10 -1 -9 28 7 31 29 5 16 -19 25 -22 33 -14z m-372
11 c-3 -3 -12 -4 -19 -1 -8 3 -5 6 6 6 11 1 17 -2 13 -5z m673 -19 c0 -8 6
-12 13 -10 14 5 53 -22 45 -31 -4 -3 -15 -1 -27 5 -13 7 -22 8 -26 1 -15 -25
-40 6 -29 35 8 19 24 19 24 0z m-3220 -16 c-14 -6 -43 -19 -64 -30 -22 -10
-41 -17 -43 -15 -6 6 99 56 116 55 9 0 5 -5 -9 -10z m790 -14 c0 -8 -7 -15
-15 -15 -16 0 -20 12 -8 23 11 12 23 8 23 -8z m2670 0 c0 -9 -9 -15 -21 -15
-18 0 -19 2 -9 15 7 8 16 15 21 15 5 0 9 -7 9 -15z m-3451 -18 c-18 -15 -89
-45 -84 -36 7 11 62 38 79 39 5 0 7 -1 5 -3z m2331 -17 c0 -5 -4 -10 -10 -10
-5 0 -10 5 -10 10 0 6 5 10 10 10 6 0 10 -4 10 -10z m-1560 -22 c0 -6 -7 -7
-16 -4 -9 3 -18 6 -20 6 -3 0 -3 4 1 10 7 11 35 2 35 -12z m-120 -3 c0 -8 -4
-15 -10 -15 -5 0 -10 7 -10 15 0 8 5 15 10 15 6 0 10 -7 10 -15z m1630 5 c0
-5 -5 -10 -11 -10 -5 0 -7 5 -4 10 3 6 8 10 11 10 2 0 4 -4 4 -10z m120 -27
c0 -6 -5 -15 -11 -19 -8 -4 -7 -9 2 -15 7 -4 10 -11 6 -15 -4 -4 -10 -5 -13
-2 -5 5 -7 14 -13 48 -1 3 -6 -2 -11 -10 -7 -12 -12 -12 -22 -2 -10 10 -10 14
1 21 7 5 11 13 7 19 -4 7 5 6 24 -1 16 -6 30 -17 30 -24z m910 28 c0 -5 -7
-11 -14 -14 -10 -4 -13 -1 -9 9 6 15 23 19 23 5z m-2730 -16 c-14 -16 -40 -20
-40 -6 0 10 17 19 39 20 11 1 11 -2 1 -14z m2686 -12 c-10 -10 -19 5 -10 18 6
11 8 11 12 0 2 -7 1 -15 -2 -18z m-3359 -25 c-3 -7 -5 -2 -5 12 0 14 2 19 5
13 2 -7 2 -19 0 -25z m733 -13 c0 -19 -4 -35 -10 -35 -5 0 -10 5 -10 11 0 6
-8 9 -18 7 -12 -4 -18 1 -19 14 -1 14 3 18 18 13 14 -5 17 -3 13 9 -4 11 -1
16 10 16 12 0 16 -10 16 -35z m97 6 c10 -16 9 -18 -13 -18 -27 0 -26 -1 -18
21 8 21 17 20 31 -3z m2463 10 c0 -12 -20 -25 -27 -18 -7 7 6 27 18 27 5 0 9
-4 9 -9z m-2510 -21 c0 -5 -4 -10 -10 -10 -5 0 -10 5 -10 10 0 6 5 10 10 10 6
0 10 -4 10 -10z m-20 -30 c0 -5 -4 -10 -10 -10 -5 0 -10 5 -10 10 0 6 5 10 10
10 6 0 10 -4 10 -10z m-545 -10 c3 -5 1 -10 -4 -10 -6 0 -11 5 -11 10 0 6 2
10 4 10 3 0 8 -4 11 -10z m625 0 c0 -5 -4 -10 -10 -10 -5 0 -10 5 -10 10 0 6
5 10 10 10 6 0 10 -4 10 -10z m1740 0 c0 -5 -4 -10 -10 -10 -5 0 -10 5 -10 10
0 6 5 10 10 10 6 0 10 -4 10 -10z m-1790 -10 c0 -5 -4 -10 -10 -10 -5 0 -10 5
-10 10 0 6 5 10 10 10 6 0 10 -4 10 -10z m2320 0 c0 -5 -4 -10 -10 -10 -5 0
-10 5 -10 10 0 6 5 10 10 10 6 0 10 -4 10 -10z m-450 -10 c0 -5 -4 -10 -10
-10 -5 0 -10 5 -10 10 0 6 5 10 10 10 6 0 10 -4 10 -10z m-1086 -15 c3 -9 0
-15 -9 -15 -9 0 -12 6 -9 15 4 8 7 15 9 15 2 0 5 -7 9 -15z m796 -25 c0 -5 -7
-10 -16 -10 -8 0 -12 5 -9 10 3 6 10 10 16 10 5 0 9 -4 9 -10z m-2150 -10 c0
-5 -4 -10 -10 -10 -5 0 -10 5 -10 10 0 6 5 10 10 10 6 0 10 -4 10 -10z m2220
-11 c0 -5 -4 -9 -10 -9 -5 0 -10 7 -10 16 0 8 5 12 10 9 6 -3 10 -10 10 -16z
m-1610 -10 c0 -5 -7 -9 -15 -9 -8 0 -15 -5 -15 -12 0 -14 -13 -2 -16 15 -1 7
9 13 22 13 13 1 24 -2 24 -7z m-600 -9 c0 -5 -4 -10 -10 -10 -5 0 -10 5 -10
10 0 6 5 10 10 10 6 0 10 -4 10 -10z"/>
<path d="M2475 4290 c-3 -5 1 -10 10 -10 9 0 13 5 10 10 -3 6 -8 10 -10 10 -2
0 -7 -4 -10 -10z"/>
<path d="M1950 4100 c-14 -4 -19 -8 -12 -9 6 -1 14 0 16 2 3 1 15 -8 29 -21
l24 -23 -5 27 c-5 26 -4 27 32 21 20 -3 36 -2 36 4 0 11 -85 10 -120 -1z"/>
<path d="M1899 4063 c5 -10 17 -27 25 -38 15 -20 16 -19 13 5 -2 24 -22 49
-40 50 -4 0 -3 -8 2 -17z"/>
<path d="M1830 4035 c-8 -10 -9 -15 -1 -15 6 0 10 -10 8 -22 -1 -17 4 -24 21
-26 21 -3 22 -1 12 18 -8 15 -8 25 -1 34 6 7 8 16 4 19 -11 11 -30 8 -43 -8z"/>
<path d="M1776 3977 c2 -7 -7 -24 -21 -37 -14 -13 -25 -18 -25 -12 0 7 -4 12
-10 12 -5 0 -7 -6 -4 -14 6 -15 -34 -49 -47 -40 -4 2 -7 -9 -7 -25 1 -17 7
-32 15 -35 7 -3 13 -12 13 -20 0 -8 3 -16 8 -18 8 -3 44 -60 111 -176 24 -41
45 -71 48 -69 2 3 -21 50 -53 104 -97 167 -108 186 -98 182 49 -23 64 -35 64
-51 0 -10 11 -24 25 -30 27 -12 59 -54 51 -66 -3 -4 -1 -14 4 -21 6 -10 14 -3
29 28 16 30 34 48 66 63 30 14 48 31 54 50 9 25 15 28 52 28 33 0 40 -3 35
-16 -5 -13 0 -15 33 -9 28 4 49 2 71 -10 18 -9 34 -14 37 -12 2 3 -4 10 -15
16 -23 12 -57 61 -42 61 5 0 20 -10 32 -22 50 -52 98 -72 98 -43 0 10 -10 15
-29 15 -17 0 -33 5 -36 10 -3 6 1 10 9 10 23 0 20 17 -5 31 -18 9 -19 13 -8
21 12 8 11 9 -1 5 -8 -2 -27 2 -41 9 -14 7 -55 18 -92 24 -47 9 -64 15 -61 25
4 10 -3 13 -28 11 -35 -3 -110 -25 -118 -35 -11 -13 -48 -29 -54 -24 -3 4 -6
21 -6 40 0 26 -4 33 -20 33 -11 0 -20 5 -20 10 0 6 -4 10 -10 10 -5 0 -7 -6
-4 -13z m327 -94 c-7 -2 -19 -2 -25 0 -7 3 -2 5 12 5 14 0 19 -2 13 -5z"/>
<path d="M1461 3911 c10 -22 9 -23 -9 -19 -14 4 -19 2 -16 -7 5 -13 44 -9 44
4 0 4 -7 16 -16 27 -14 18 -15 18 -3 -5z"/>
<path d="M1405 3910 c-3 -5 -2 -10 4 -10 5 0 13 5 16 10 3 6 2 10 -4 10 -5 0
-13 -4 -16 -10z"/>
<path d="M1468 3863 c7 -3 16 -2 19 1 4 3 -2 6 -13 5 -11 0 -14 -3 -6 -6z"/>
<path d="M1378 3823 c7 -3 16 -2 19 1 4 3 -2 6 -13 5 -11 0 -14 -3 -6 -6z"/>
<path d="M1629 3772 c6 -12 16 -24 22 -28 8 -4 8 -1 0 14 -6 12 -16 24 -22 28
-8 4 -8 1 0 -14z"/>
<path d="M1530 3636 c0 -8 5 -18 10 -21 6 -3 10 1 10 9 0 8 -4 18 -10 21 -5 3
-10 -1 -10 -9z"/>
<path d="M1886 3627 c3 -10 9 -15 12 -12 3 3 0 11 -7 18 -10 9 -11 8 -5 -6z"/>
<path d="M2911 3544 c0 -11 3 -14 6 -6 3 7 2 16 -1 19 -3 4 -6 -2 -5 -13z"/>
<path d="M2890 3445 c0 -24 16 -51 22 -39 3 5 -1 20 -8 34 -12 22 -14 22 -14
5z"/>
<path d="M3511 3324 c-6 -15 -9 -29 -7 -32 3 -2 10 8 16 23 14 36 7 43 -9 9z"/>
<path d="M1332 3245 c-37 -31 -41 -64 -11 -91 17 -16 35 -19 97 -17 42 1 87 8
99 14 32 17 29 50 -7 84 -24 23 -41 30 -88 33 -52 4 -61 1 -90 -23z"/>
<path d="M2890 3260 c0 -5 5 -10 11 -10 5 0 7 5 4 10 -3 6 -8 10 -11 10 -2 0
-4 -4 -4 -10z"/>
<path d="M1658 3201 c-1 -5 -10 -11 -17 -13 -8 -2 -25 -14 -38 -27 -13 -13
-29 -21 -38 -17 -8 3 -15 1 -15 -4 0 -6 15 -10 34 -10 36 0 86 37 86 65 0 17
-6 20 -12 6z"/>
<path d="M3200 3136 c0 -9 5 -16 10 -16 6 0 10 4 10 9 0 6 -4 13 -10 16 -5 3
-10 -1 -10 -9z"/>
<path d="M2671 3044 c0 -11 3 -14 6 -6 3 7 2 16 -1 19 -3 4 -6 -2 -5 -13z"/>
<path d="M2720 2952 c0 -12 19 -26 26 -19 2 2 -2 10 -11 17 -9 8 -15 8 -15 2z"/>
<path d="M1431 2843 c-1 -30 -20 -39 -37 -17 -13 18 -14 17 -8 -8 4 -21 1 -27
-15 -33 -12 -3 -21 -12 -21 -20 0 -12 39 4 97 40 1 0 -2 14 -6 31 -8 23 -9 25
-10 7z"/>
<path d="M1551 2848 c-1 -10 -8 -18 -16 -18 -8 0 -15 -4 -15 -10 0 -5 6 -10
14 -10 16 0 29 -27 20 -42 -3 -5 8 -3 24 6 17 9 33 20 36 25 8 12 -21 41 -39
41 -7 0 -16 6 -18 13 -3 7 -6 5 -6 -5z"/>
<path d="M2960 2850 c0 -5 5 -10 11 -10 5 0 7 5 4 10 -3 6 -8 10 -11 10 -2 0
-4 -4 -4 -10z"/>
<path d="M3150 2834 c0 -6 7 -19 15 -30 8 -10 14 -14 14 -9 0 6 -6 19 -14 29
-8 11 -15 15 -15 10z"/>
<path d="M1478 2823 c7 -3 16 -2 19 1 4 3 -2 6 -13 5 -11 0 -14 -3 -6 -6z"/>
<path d="M1660 2808 c0 -9 5 -20 11 -23 17 -11 18 -2 3 19 -12 17 -14 17 -14
4z"/>
<path d="M2816 2797 c3 -10 9 -15 12 -12 3 3 0 11 -7 18 -10 9 -11 8 -5 -6z"/>
<path d="M2737 2769 c7 -7 15 -10 18 -7 3 3 -2 9 -12 12 -14 6 -15 5 -6 -5z"/>
<path d="M2855 2723 c14 -27 35 -66 48 -88 13 -22 38 -66 56 -97 18 -32 37
-61 42 -64 16 -10 -8 40 -65 134 -31 51 -56 97 -56 102 0 6 -4 10 -9 10 -5 0
-12 11 -15 25 -4 14 -11 25 -16 25 -6 0 1 -21 15 -47z"/>
<path d="M1690 2750 c0 -5 5 -10 11 -10 5 0 7 5 4 10 -3 6 -8 10 -11 10 -2 0
-4 -4 -4 -10z"/>
<path d="M2670 2737 c0 -10 4 -17 9 -17 5 0 12 -11 15 -25 4 -14 11 -23 16
-20 15 9 12 17 -15 49 -18 21 -25 25 -25 13z"/>
<path d="M2580 2735 c0 -2 11 -21 25 -41 28 -41 34 -28 8 17 -15 25 -33 39
-33 24z"/>
<path d="M2766 2732 c-3 -6 -1 -14 5 -17 14 -9 20 -2 10 14 -6 8 -11 9 -15 3z"/>
<path d="M1800 2713 c0 -4 5 -15 10 -23 8 -13 10 -13 10 2 0 9 -4 20 -10 23
-5 3 -10 3 -10 -2z"/>
<path d="M2372 2641 c36 -66 56 -83 32 -26 -8 19 -15 38 -16 42 -1 5 -12 16
-26 27 -22 17 -21 14 10 -43z"/>
<path d="M2445 2689 c-4 -6 -5 -12 -2 -15 2 -3 7 2 10 11 7 17 1 20 -8 4z"/>
<path d="M2960 2690 c0 -5 5 -10 10 -10 6 0 10 5 10 10 0 6 -4 10 -10 10 -5 0
-10 -4 -10 -10z"/>
<path d="M2980 2664 c0 -15 75 -134 78 -125 2 6 -10 31 -27 56 -17 25 -31 50
-31 55 0 5 -4 12 -10 15 -5 3 -10 3 -10 -1z"/>
<path d="M2190 2647 c0 -19 16 -31 24 -18 3 5 -1 14 -9 21 -12 10 -15 10 -15
-3z"/>
<path d="M1947 2610 c3 -11 9 -17 15 -14 5 3 4 12 -3 20 -16 19 -18 18 -12 -6z"/>
<path d="M1450 2550 c6 -11 12 -20 14 -20 2 0 2 9 -1 20 -3 11 -9 20 -15 20
-5 0 -4 -9 2 -20z"/>
<path d="M1375 2508 c-7 -24 -16 -33 -30 -32 l-21 0 20 -43 c11 -24 25 -43 32
-43 7 0 27 13 44 29 31 28 32 30 20 66 -8 24 -17 35 -26 31 -7 -3 -17 1 -22 9
-6 11 -10 7 -17 -17z"/>
<path d="M1142 2434 c10 -10 20 -15 24 -12 3 4 -5 12 -18 18 -22 12 -22 12 -6
-6z"/>
<path d="M1746 2435 c4 -8 10 -15 15 -15 4 0 6 7 3 15 -4 8 -10 15 -15 15 -4
0 -6 -7 -3 -15z"/>
<path d="M2980 2355 c0 -8 4 -15 10 -15 5 0 7 7 4 15 -4 8 -8 15 -10 15 -2 0
-4 -7 -4 -15z"/>
<path d="M2850 2346 c0 -8 4 -17 9 -20 5 -4 7 3 4 14 -6 23 -13 26 -13 6z"/>
<path d="M1715 2310 c-3 -5 -1 -10 4 -10 6 0 11 5 11 10 0 6 -2 10 -4 10 -3 0
-8 -4 -11 -10z"/>
<path d="M1180 2262 c0 -9 50 -35 56 -29 2 2 -10 11 -26 21 -17 9 -30 13 -30
8z"/>
<path d="M1225 2140 c3 -5 11 -10 16 -10 6 0 7 5 4 10 -3 6 -11 10 -16 10 -6
0 -7 -4 -4 -10z"/>
<path d="M3730 1970 c6 -11 12 -20 14 -20 2 0 2 9 -1 20 -3 11 -9 20 -15 20
-5 0 -4 -9 2 -20z"/>
<path d="M2876 1925 c4 -8 11 -15 16 -15 6 0 5 6 -2 15 -7 8 -14 15 -16 15 -2
0 -1 -7 2 -15z"/>
<path d="M3788 1870 c18 -32 27 -33 18 -2 -4 11 -13 23 -21 25 -10 5 -10 -1 3
-23z"/>
<path d="M2835 1840 c3 -5 8 -10 11 -10 2 0 4 5 4 10 0 6 -5 10 -11 10 -5 0
-7 -4 -4 -10z"/>
<path d="M3840 1792 c0 -15 53 -102 62 -102 4 0 -6 24 -23 53 -36 60 -39 64
-39 49z"/>
<path d="M2575 1530 c-3 -5 -1 -10 4 -10 6 0 11 5 11 10 0 6 -2 10 -4 10 -3 0
-8 -4 -11 -10z"/>
<path d="M2495 1510 c3 -5 8 -10 11 -10 2 0 4 5 4 10 0 6 -5 10 -11 10 -5 0
-7 -4 -4 -10z"/>
<path d="M2296 1495 c4 -8 8 -15 10 -15 2 0 4 7 4 15 0 8 -4 15 -10 15 -5 0
-7 -7 -4 -15z"/>
<path d="M2075 1480 c-3 -5 -1 -10 4 -10 6 0 11 5 11 10 0 6 -2 10 -4 10 -3 0
-8 -4 -11 -10z"/>
<path d="M2510 1481 c0 -6 5 -13 10 -16 6 -3 10 1 10 9 0 9 -4 16 -10 16 -5 0
-10 -4 -10 -9z"/>
<path d="M2452 1430 c14 -22 24 -19 15 5 -4 8 -11 15 -17 15 -6 0 -6 -7 2 -20z"/>
<path d="M2370 1428 c0 -10 4 -18 9 -18 5 0 11 -10 14 -22 4 -12 9 -19 13 -15
4 3 -3 21 -15 39 -14 22 -21 27 -21 16z"/>
<path d="M2310 1371 c0 -4 9 -20 20 -34 11 -14 20 -30 20 -36 0 -6 5 -11 10
-11 15 0 13 6 -15 50 -25 39 -35 48 -35 31z"/>
<path d="M2252 1326 c6 -14 15 -26 20 -26 10 0 -7 36 -22 45 -6 4 -5 -5 2 -19z"/>
<path d="M2297 1246 c9 -20 20 -36 25 -36 10 0 -18 56 -32 65 -6 4 -3 -10 7
-29z"/>
<path d="M2230 1206 c0 -9 5 -16 10 -16 6 0 10 4 10 9 0 6 -4 13 -10 16 -5 3
-10 -1 -10 -9z"/>
<path d="M2270 1140 c12 -23 24 -40 26 -37 7 7 -22 64 -37 72 -6 4 -1 -12 11
-35z"/>
<path d="M2335 1170 c3 -5 11 -10 16 -10 6 0 7 5 4 10 -3 6 -11 10 -16 10 -6
0 -7 -4 -4 -10z"/>
<path d="M1520 1540 c8 -6 29 -18 45 -26 l30 -16 -20 20 c-11 11 -31 23 -45
27 -20 5 -22 4 -10 -5z"/>
<path d="M200 900 c-21 -7 -19 -8 18 -9 23 -1 42 4 42 9 0 12 -24 12 -60 0z"/>
<path d="M4490 810 c0 -5 5 -10 11 -10 5 0 7 5 4 10 -3 6 -8 10 -11 10 -2 0
-4 -4 -4 -10z"/>
<path d="M4557 799 c7 -7 15 -10 18 -7 3 3 -2 9 -12 12 -14 6 -15 5 -6 -5z"/>
<path d="M4530 796 c0 -2 8 -10 18 -17 15 -13 16 -12 3 4 -13 16 -21 21 -21
13z"/>
<path d="M4611 740 c6 -16 15 -30 19 -30 4 0 17 -19 28 -42 25 -54 75 -103 96
-95 25 10 19 28 -13 40 -20 7 -45 35 -77 84 -49 77 -70 94 -53 43z"/>
<path d="M4815 549 c-4 -6 -5 -13 -2 -16 7 -7 27 6 27 18 0 12 -17 12 -25 -2z"/>
<path d="M679 471 c-13 -11 -21 -22 -18 -25 3 -3 16 5 29 19 28 30 22 33 -11
6z"/>
<path d="M3110 300 c0 -5 5 -10 11 -10 5 0 7 5 4 10 -3 6 -8 10 -11 10 -2 0
-4 -4 -4 -10z"/>
<path d="M3031 284 c0 -11 3 -14 6 -6 3 7 2 16 -1 19 -3 4 -6 -2 -5 -13z"/>
<path d="M2866 255 c9 -14 20 -25 25 -25 12 0 -12 38 -28 45 -9 3 -8 -4 3 -20z"/>
<path d="M2950 275 c0 -15 18 -40 24 -34 3 3 -1 14 -9 25 -8 10 -14 15 -15 9z"/>
<path d="M85 1560 c3 -5 8 -10 11 -10 2 0 4 5 4 10 0 6 -5 10 -11 10 -5 0 -7
-4 -4 -10z"/>
<path d="M125 1530 c3 -5 8 -10 11 -10 2 0 4 5 4 10 0 6 -5 10 -11 10 -5 0 -7
-4 -4 -10z"/>
<path d="M190 1480 c0 -5 5 -10 11 -10 5 0 7 5 4 10 -3 6 -8 10 -11 10 -2 0
-4 -4 -4 -10z"/>
<path d="M265 1420 c3 -5 8 -10 11 -10 2 0 4 5 4 10 0 6 -5 10 -11 10 -5 0 -7
-4 -4 -10z"/>
<path d="M340 1370 c0 -5 5 -10 11 -10 5 0 7 5 4 10 -3 6 -8 10 -11 10 -2 0
-4 -4 -4 -10z"/>
<path d="M387 1339 c7 -7 15 -10 18 -7 3 3 -2 9 -12 12 -14 6 -15 5 -6 -5z"/>
<path d="M4860 940 c0 -5 5 -10 11 -10 5 0 7 5 4 10 -3 6 -8 10 -11 10 -2 0
-4 -4 -4 -10z"/>
<path d="M4961 915 c28 -51 39 -63 39 -44 0 8 -14 30 -31 49 l-31 35 23 -40z"/>
<path d="M0 900 c0 -12 47 -12 75 0 15 6 8 9 -27 9 -27 1 -48 -3 -48 -9z"/>
<path d="M4890 886 c0 -9 5 -16 10 -16 6 0 10 4 10 9 0 6 -4 13 -10 16 -5 3
-10 -1 -10 -9z"/>
<path d="M2008 883 c7 -3 16 -2 19 1 4 3 -2 6 -13 5 -11 0 -14 -3 -6 -6z"/>
<path d="M1371 770 c-12 -22 -18 -40 -13 -40 9 0 45 70 39 76 -2 2 -14 -14
-26 -36z"/>
<path d="M1420 775 c0 -8 4 -15 10 -15 5 0 7 7 4 15 -4 8 -8 15 -10 15 -2 0
-4 -7 -4 -15z"/>
<path d="M1370 709 c0 -9 7 -22 15 -29 19 -16 19 0 0 26 -12 16 -14 16 -15 3z"/>
<path d="M1317 673 c-4 -6 -4 -18 -1 -27 7 -18 -13 -76 -26 -76 -4 0 -11 -26
-15 -57 -7 -54 -8 -56 -22 -38 -15 19 -15 19 -9 -5 4 -14 8 -35 10 -48 2 -12
6 -25 9 -29 4 -3 1 -15 -5 -26 -11 -21 -11 -21 -29 2 -24 30 -24 11 -1 -37 17
-34 23 -105 10 -118 -3 -3 -17 15 -32 40 -45 76 -49 62 -5 -20 50 -96 67 -120
76 -111 3 4 1 13 -5 19 -14 14 -16 77 -3 97 7 11 11 10 20 -5 16 -28 13 3 -3
35 -10 18 -13 42 -9 71 6 43 6 43 24 22 27 -34 31 -26 10 17 -14 27 -18 49
-14 75 6 41 17 46 33 15 7 -11 14 -18 17 -15 3 3 -2 17 -11 30 -9 14 -16 35
-16 46 0 30 19 62 32 54 8 -5 9 0 5 16 -3 13 -2 31 4 41 10 20 -5 37 -17 17
-5 -8 -9 -6 -14 7 -4 12 -9 15 -13 8z"/>
<path d="M4973 575 c0 -18 19 -15 25 3 2 7 -3 12 -10 12 -8 0 -15 -7 -15 -15z"/>
<path d="M2167 565 c-4 -8 -2 -17 3 -20 6 -4 10 3 10 14 0 25 -6 27 -13 6z"/>
<path d="M1475 530 c3 -5 8 -10 11 -10 2 0 4 5 4 10 0 6 -5 10 -11 10 -5 0 -7
-4 -4 -10z"/>
<path d="M1864 462 c17 -32 39 -71 49 -85 9 -15 24 -39 33 -53 8 -14 18 -24
20 -21 6 6 -117 217 -126 217 -4 0 7 -26 24 -58z"/>
<path d="M1821 400 c0 -25 98 -188 98 -165 0 6 -22 48 -49 95 -27 47 -49 78
-49 70z"/>
<path d="M1780 313 c1 -14 80 -148 80 -136 0 13 -69 143 -76 143 -2 0 -4 -3
-4 -7z"/>
<path d="M590 227 c0 -14 33 -67 43 -67 9 0 -3 24 -27 55 -8 11 -16 16 -16 12z"/>
<path d="M1771 180 c-1 -18 16 -46 23 -40 2 3 -2 16 -9 30 -8 15 -14 19 -14
10z"/>
<path d="M1192 98 c17 -29 37 -63 43 -76 10 -19 14 -20 19 -7 3 9 -3 24 -14
35 -10 10 -28 37 -40 60 -11 22 -25 40 -30 40 -5 0 5 -24 22 -52z"/>
<path d="M582 80 c7 -10 14 -18 15 -16 6 6 -9 36 -18 36 -5 0 -4 -9 3 -20z"/>
<path d="M1400 50 c1 -17 28 -56 34 -49 3 3 -4 18 -14 34 -11 17 -20 23 -20
15z"/>
<path d="M700 38 c0 -8 7 -21 15 -28 19 -16 19 -1 0 24 -12 16 -15 17 -15 4z"/>
</g>
</svg>
