<?xml version="1.0" standalone="no"?>
<!DOCTYPE svg PUBLIC "-//W3C//DTD SVG 20010904//EN"
 "http://www.w3.org/TR/2001/REC-SVG-20010904/DTD/svg10.dtd">
<svg version="1.0" xmlns="http://www.w3.org/2000/svg"
 width="400.000000pt" height="400.000000pt" viewBox="0 0 400.000000 400.000000"
 preserveAspectRatio="xMidYMid meet">
<metadata>
Created by potrace 1.11, written by Peter Selinger 2001-2013
</metadata>
<g transform="translate(0.000000,400.000000) scale(0.100000,-0.100000)"
fill="#000000" stroke="none">
<path d="M0 2000 l0 -2000 2000 0 2000 0 0 2000 0 2000 -2000 0 -2000 0 0
-2000z m2605 710 c138 -16 250 -47 361 -100 131 -63 211 -144 278 -282 110
-224 160 -566 137 -934 -18 -288 -51 -427 -143 -614 -55 -111 -71 -134 -147
-211 -104 -103 -184 -146 -353 -189 -193 -48 -481 -64 -748 -40 -213 20 -289
58 -352 177 -23 41 -41 92 -45 120 -5 43 -2 53 19 78 l25 28 139 -17 c394 -49
736 -38 909 30 149 58 237 203 282 462 23 133 23 505 0 647 -51 317 -142 414
-437 466 -116 21 -439 16 -659 -10 -222 -25 -245 -26 -266 -4 -41 40 17 206
101 289 60 60 125 79 379 108 71 8 438 5 520 -4z"/>
</g>
</svg>
