<?xml version="1.0" encoding="UTF-8"?>
<svg width="194px" height="36px" viewBox="0 0 194 36" version="1.1" xmlns="http://www.w3.org/2000/svg" xmlns:xlink="http://www.w3.org/1999/xlink">
    <title>calyx_tm_ultraviolet</title>
    <g id="Calyx" stroke="none" stroke-width="1" fill="none" fill-rule="evenodd">
        <path d="M191.569047,3.405 L191.569047,1.943 L191.558088,0.988 L191.603917,0.988 L192.509547,2.783 L193.415675,0.988 L193.461006,0.988 L193.450047,1.943 L193.450047,3.405 L194,3.405 L194,0.194 L193.289644,0.194 L192.543919,1.736 L192.509547,1.736 L191.76432,0.194 L191.019094,0.194 L191.019094,3.405 L191.569047,3.405 Z M189.551556,3.405 L189.551556,0.723 L190.537387,0.723 L190.537387,0.194 L187.968945,0.194 L187.968945,0.723 L188.954777,0.723 L188.954777,3.405 L189.551556,3.405 Z M31.9485985,27.716 L30.6862964,26.787 L30.4138105,26.587 L30.1961206,26.426 L30.0511601,26.655 L29.8703331,26.942 L29.679045,27.244 C27.3098623,30.991 22.7722497,33.3185 17.8371165,33.3185 C9.07671963,33.3185 2.71937942,26.876 2.71937942,17.9995 C2.71937942,9.1235 9.07671963,2.681 17.8371165,2.681 C22.8096106,2.681 27.2381292,4.954 29.682532,8.7605 L29.8668461,9.049 L30.0421935,9.322 L30.1816744,9.54 L30.3963753,9.3945 L30.6638798,9.2125 L31.9620485,8.331 L32.2166011,8.1575 L32.4193466,8.0195 L32.1229496,7.552 L31.9490967,7.277 C29.1121548,2.7885 23.7047791,0 17.8371165,0 C7.66846068,0 0,7.7385 0,17.9995 C0,28.2615 7.66846068,36 17.8371165,36 C23.6988014,36 29.0967122,33.2205 31.9251856,28.7465 L32.0925627,28.4825 L32.2509732,28.2315 L32.3780004,28.0315 L32.1872105,27.891 L31.9485985,27.716 Z M73.1069217,35.451 L57.7759781,0.4365 L57.6927877,0.2475 L57.6260361,0.0965 L55.4137694,0.0965 L55.3475159,0.248 L55.2648237,0.438 L39.8043621,35.806 L42.7150296,35.806 L42.7807849,35.655 L42.8634772,35.4655 L56.5091926,4.2465 L70.1783209,35.466 L70.3277647,35.806 L73.2623432,35.806 L73.1069217,35.451 Z M85.2103768,33.1255 L85.2103768,0.1935 L82.5149084,0.1935 L82.5149084,35.806 L106.305867,35.806 L106.305867,33.1255 L85.2103768,33.1255 Z M143.368931,0.1935 L143.292715,0.287 L143.198067,0.405 L131.074686,15.425 L118.975216,0.4055 L118.880568,0.287 L118.804352,0.1935 L115.377605,0.1935 L115.70937,0.6065 L116.125322,1.1225 L129.337152,17.541 L115.379598,34.8775 L114.963147,35.3935 L114.631382,35.806 L118.009809,35.806 L118.086025,35.7125 L118.181171,35.5945 L146.023552,1.1225 L146.439503,0.6065 L146.771767,0.1935 L143.368931,0.1935 Z M184.998002,35.806 L181.571255,35.806 L181.496035,35.7125 L181.400391,35.5945 L168.531784,19.6335 L155.661682,35.5945 L155.567532,35.7125 L155.491814,35.806 L152.112391,35.806 L166.818161,17.541 L153.190877,0.6065 L152.858116,0.1935 L156.285859,0.1935 L156.361577,0.287 L156.456225,0.4055 L168.555695,15.425 L180.679076,0.4055 L180.774222,0.287 L180.84994,0.1935 L184.252776,0.1935 L183.920512,0.6065 L170.293228,17.541 L184.249787,34.8775 L184.665739,35.3935 L184.998002,35.806 L184.998002,35.806 Z" id="calyx_tm_ultraviolet" fill="#410099"></path>
    </g>
</svg>